solid Knacle_Open_714
facet normal -0.9819297953059674 0.189245547082041 -6.843683217729829e-17
  outer loop
    vertex 9.201748256977153 10.654578862386709 4.200000000000002
    vertex 9.078656456045481 10.01589801226197 2.4052881330369193e-15
    vertex 9.078656456045481 10.01589801226197 4.200000000000002
  endloop
endfacet
facet normal -0.9819297953059674 0.189245547082041 -6.843683217729829e-17
  outer loop
    vertex 9.078656456045481 10.01589801226197 2.4052881330369193e-15
    vertex 9.201748256977153 10.654578862386709 4.200000000000002
    vertex 9.201748256977153 10.654578862386709 2.4094314806332276e-15
  endloop
endfacet
facet normal -0.9952094455244718 -0.09776584034760522 -6.09452261440495e-17
  outer loop
    vertex 9.168220601774138 11.951636477248966 4.200000000000002
    vertex 9.231810860797607 11.304318086709973 2.329028749977676e-15
    vertex 9.231810860797607 11.304318086709973 4.200000000000002
  endloop
endfacet
facet normal -0.9952094455244718 -0.09776584034760522 -6.09452261440495e-17
  outer loop
    vertex 9.231810860797607 11.304318086709973 2.329028749977676e-15
    vertex 9.168220601774138 11.951636477248966 4.200000000000002
    vertex 9.168220601774138 11.951636477248966 2.1657479412283634e-15
  endloop
endfacet
facet normal 0.9723699203976808 -0.23344536385588846 6.910888645144944e-17
  outer loop
    vertex 14.438441702975648 19.46305525272373 9.853975475852781e-19
    vertex 14.255282581475766 18.700142606050253 4.2
    vertex 14.255282581475766 18.700142606050253 9.853975475852781e-19
  endloop
endfacet
facet normal 0.9723699203976808 -0.23344536385588846 6.910888645144944e-17
  outer loop
    vertex 14.255282581475766 18.700142606050253 4.2
    vertex 14.438441702975648 19.46305525272373 9.853975475852781e-19
    vertex 14.438441702975648 19.46305525272373 4.2
  endloop
endfacet
facet normal -0.1607783064656509 -0.986990545126972 0.0
  outer loop
    vertex 6.227201148634847 22.904895129185203 3.2999999999999994
    vertex 1.6904735543971734 23.643916777466224 7.108001951623413e-18
    vertex 6.227201148634847 22.904895129185203 6.701332703147703e-17
  endloop
endfacet
facet normal -0.6230445985740757 0.7821862678675611 -0.00026560701223963835
  outer loop
    vertex 5.895773470997002 4.771410968738605 1.350000918174937
    vertex 6.406888863365535 5.178077968573158 -3.524958103184872e-16
    vertex 5.895773470997004 4.771410968738605 -5.287437154777307e-16
  endloop
endfacet
facet normal -0.6230445985740757 0.7821862678675611 -0.00026560701223963835
  outer loop
    vertex 6.406888863365535 5.178077968573158 -3.524958103184872e-16
    vertex 5.895773470997002 4.771410968738605 1.350000918174937
    vertex 6.4062389605292624 5.178477133045717 1.350000918174937
  endloop
endfacet
facet normal -0.3569627139764321 0.9327731592114479 0.050118402660847335
  outer loop
    vertex 5.9204690995908225 4.727131244746441 2.3499999999999988
    vertex 7.06319623559752 5.164441190659022 2.3499999999999983
    vertex 5.895773470997002 4.771410968738605 1.350000918174937
  endloop
endfacet
facet normal -0.9445575829752167 0.3283458122833554 -7.008481500151287e-17
  outer loop
    vertex 9.078656456045481 10.01589801226197 4.200000000000002
    vertex 8.865089067086998 9.401525332086395 2.0000000000000018
    vertex 8.865089067086998 9.401525332086395 4.200000000000002
  endloop
endfacet
facet normal -0.9445575829752167 0.3283458122833554 -7.008481500151287e-17
  outer loop
    vertex 8.865089067086998 9.401525332086395 2.0000000000000018
    vertex 9.078656456045481 10.01589801226197 4.200000000000002
    vertex 8.865089067086998 9.401525332086395 2.3166846632799116e-15
  endloop
endfacet
facet normal -0.9445575829752167 0.3283458122833554 -7.008481500151287e-17
  outer loop
    vertex 8.865089067086998 9.401525332086395 2.3166846632799116e-15
    vertex 9.078656456045481 10.01589801226197 4.200000000000002
    vertex 9.078656456045481 10.01589801226197 2.4052881330369193e-15
  endloop
endfacet
facet normal -0.9934056560069883 -0.11465252990372851 -1.2202777912022928e-18
  outer loop
    vertex 8.577358507572884 16.351622467877828 4.200000000000001
    vertex 9.012296695824412 12.583105047588015 1.9229764071852076e-15
    vertex 9.012296695824412 12.583105047588015 4.200000000000002
  endloop
endfacet
facet normal -0.9934056560069883 -0.11465252990372851 -1.2202777912022928e-18
  outer loop
    vertex 9.012296695824412 12.583105047588015 1.9229764071852076e-15
    vertex 8.577358507572884 16.351622467877828 4.200000000000001
    vertex 8.577358507572884 16.351622467877828 5.48792750053593e-16
  endloop
endfacet
facet normal -0.42605631606656647 0.9046966428255309 -2.289310089060665e-16
  outer loop
    vertex 5.304862499149394 4.493128349050296 1.350000918174937
    vertex 5.895773470997004 4.771410968738605 -5.287437154777307e-16
    vertex 5.304862499149394 4.493128349050296 -5.287437154777307e-16
  endloop
endfacet
facet normal -0.42605631606656647 0.9046966428255309 -2.289310089060665e-16
  outer loop
    vertex 5.895773470997004 4.771410968738605 -5.287437154777307e-16
    vertex 5.304862499149394 4.493128349050296 1.350000918174937
    vertex 5.895773470997002 4.771410968738605 1.350000918174937
  endloop
endfacet
facet normal 0.9734848930257731 -0.22875131267513873 6.904390447021213e-17
  outer loop
    vertex 11.809546926278776 10.960300899832665 2.2162227193335086e-15
    vertex 11.628555831222634 10.19006664522288 4.200000000000002
    vertex 11.628555831222634 10.19006664522288 2.310285289549801e-15
  endloop
endfacet
facet normal 0.9734848930257731 -0.22875131267513873 6.904390447021213e-17
  outer loop
    vertex 11.628555831222634 10.19006664522288 4.200000000000002
    vertex 11.809546926278776 10.960300899832665 2.2162227193335086e-15
    vertex 11.809546926278776 10.960300899832665 4.200000000000002
  endloop
endfacet
facet normal 0.9510565162951444 0.30901699437497554 5.197470445152354e-17
  outer loop
    vertex 11.309062068926565 14.67750703066175 5.128744867171533e-16
    vertex 11.750062790596331 13.32024636969644 4.200000000000001
    vertex 11.750062790596331 13.32024636969644 1.3699880264975577e-15
  endloop
endfacet
facet normal 0.9510565162951444 0.30901699437497554 5.197470445152354e-17
  outer loop
    vertex 11.750062790596331 13.32024636969644 4.200000000000001
    vertex 11.309062068926565 14.67750703066175 5.128744867171533e-16
    vertex 11.309062068926565 14.67750703066175 4.200000000000001
  endloop
endfacet
facet normal -0.265866952189122 -0.7091396455811307 0.653020464303176
  outer loop
    vertex 8.865089067086998 9.401525332086395 4.200000000000002
    vertex 8.527457877601767 7.824511706325845 2.3500000000000005
    vertex 10.059448747954352 7.250145647369403 2.3500000000000005
  endloop
endfacet
facet normal -0.7859185790041179 0.6183296744914625 -0.000633103017101855
  outer loop
    vertex 6.4062389605292624 5.178477133045717 1.350000918174937
    vertex 6.810833003470916 5.691347999594843 -1.762479051592436e-16
    vertex 6.406888863365535 5.178077968573158 -3.524958103184872e-16
  endloop
endfacet
facet normal -0.7859185790041179 0.6183296744914625 -0.000633103017101855
  outer loop
    vertex 6.810833003470916 5.691347999594843 -1.762479051592436e-16
    vertex 6.4062389605292624 5.178477133045717 1.350000918174937
    vertex 6.810016497831471 5.691849490009592 1.350000918174937
  endloop
endfacet
facet normal 0.852111979254896 -0.5233595081875398 2.069614085439631e-17
  outer loop
    vertex 10.980603577495245 8.749931268382763 4.200000000000002
    vertex 10.059448747954352 7.250145647369403 2.3500000000000005
    vertex 10.980603577495245 8.749931268382763 2.0000000000000018
  endloop
endfacet
facet normal -0.41953286103503046 0.792426320746786 0.44277839231321364
  outer loop
    vertex 14.128448045263545 22.096518207300413 4.2
    vertex 8.577358507572884 19.660501290664037 3.2999999999999994
    vertex 8.577358507572884 19.15761472235022 4.2
  endloop
endfacet
facet normal 0.7804304073383406 -0.6252426563356916 6.81953321934623e-17
  outer loop
    vertex 11.556175395106033 15.639949892157256 2.5079825580470216e-17
    vertex 11.392803629197402 15.436028594523972 4.2
    vertex 11.392803629197402 15.436028594523972 9.544970781330932e-17
  endloop
endfacet
facet normal 0.7804304073383406 -0.6252426563356916 6.81953321934623e-17
  outer loop
    vertex 11.392803629197402 15.436028594523972 4.2
    vertex 11.556175395106033 15.639949892157256 2.5079825580470216e-17
    vertex 11.556175395106033 15.639949892157256 4.2
  endloop
endfacet
facet normal -0.9897659783314645 0.0792002688460893 0.1187039407613161
  outer loop
    vertex 8.565476666471968 8.824206330865785 2.0000000000000018
    vertex 8.449397577601394 8.347470848803312 1.3502022416670425
    vertex 8.546467272036868 8.324359018595816 2.175000000000001
  endloop
endfacet
facet normal -0.9903793283463959 0.07774336453854956 0.11447600296292731
  outer loop
    vertex 8.865089067086998 9.401525332086395 4.200000000000002
    vertex 8.546467272036868 8.324359018595816 2.175000000000001
    vertex 8.527457877601767 7.824511706325845 2.3500000000000005
  endloop
endfacet
facet normal -0.9903793283463959 0.07774336453854956 0.11447600296292731
  outer loop
    vertex 8.546467272036868 8.324359018595816 2.175000000000001
    vertex 8.865089067086998 9.401525332086395 4.200000000000002
    vertex 8.565476666471968 8.824206330865785 2.0000000000000018
  endloop
endfacet
facet normal -0.8512187788336221 0.5248106575980338 0.000603516790740544
  outer loop
    vertex 6.810016497831471 5.691849490009592 1.350000918174937
    vertex 8.447192678063006 8.348825078254494 1.0574874309554614e-15
    vertex 6.810833003470916 5.691347999594843 -1.762479051592436e-16
  endloop
endfacet
facet normal -0.8512187788336221 0.5248106575980338 0.000603516790740544
  outer loop
    vertex 8.447192678063006 8.348825078254494 1.0574874309554614e-15
    vertex 6.810016497831471 5.691849490009592 1.350000918174937
    vertex 8.449397577601394 8.347470848803312 1.3502022416670425
  endloop
endfacet
facet normal 0.9238795325113441 0.3826834323649513 5.541155584361377e-17
  outer loop
    vertex 13.955032620941875 22.515180076622652 9.853975475852781e-19
    vertex 14.255282581475676 21.790312549799655 4.2
    vertex 14.255282581475676 21.790312549799655 9.853975475852781e-19
  endloop
endfacet
facet normal 0.9238795325113441 0.3826834323649513 5.541155584361377e-17
  outer loop
    vertex 14.255282581475676 21.790312549799655 4.2
    vertex 13.955032620941875 22.515180076622652 9.853975475852781e-19
    vertex 14.128448045263545 22.096518207300413 4.2
  endloop
endfacet
facet normal 0.9238795325113441 0.3826834323649513 5.541155584361377e-17
  outer loop
    vertex 14.128448045263545 22.096518207300413 4.2
    vertex 13.955032620941875 22.515180076622652 9.853975475852781e-19
    vertex 13.955032620941875 22.515180076622652 3.2999999999999994
  endloop
endfacet
facet normal -0.9708413895517184 -0.23972274888564277 2.3693616475548543e-20
  outer loop
    vertex 9.012296695824412 12.583105047588015 4.200000000000002
    vertex 9.168220601774138 11.951636477248966 2.1657479412283634e-15
    vertex 9.168220601774138 11.951636477248966 4.200000000000002
  endloop
endfacet
facet normal -0.9708413895517184 -0.23972274888564277 2.3693616475548543e-20
  outer loop
    vertex 9.168220601774138 11.951636477248966 2.1657479412283634e-15
    vertex 9.012296695824412 12.583105047588015 4.200000000000002
    vertex 9.012296695824412 12.583105047588015 1.9229764071852076e-15
  endloop
endfacet
facet normal 1.879413954762992e-17 2.164704263205556e-16 1.0
  outer loop
    vertex 10.980603577495245 8.749931268382763 4.200000000000002
    vertex 9.078656456045481 10.01589801226197 4.200000000000002
    vertex 8.865089067086998 9.401525332086395 4.200000000000002
  endloop
endfacet
facet normal 1.879413954762992e-17 2.164704263205556e-16 1.0
  outer loop
    vertex 9.078656456045481 10.01589801226197 4.200000000000002
    vertex 10.980603577495245 8.749931268382763 4.200000000000002
    vertex 9.201748256977153 10.654578862386709 4.200000000000002
  endloop
endfacet
facet normal 1.879413954762992e-17 2.164704263205556e-16 1.0
  outer loop
    vertex 9.201748256977153 10.654578862386709 4.200000000000002
    vertex 10.980603577495245 8.749931268382763 4.200000000000002
    vertex 9.231810860797607 11.304318086709973 4.200000000000002
  endloop
endfacet
facet normal 1.879413954762992e-17 2.164704263205556e-16 1.0
  outer loop
    vertex 11.350726188842513 9.449236520782163 4.200000000000002
    vertex 11.264138133492684 14.934909574451979 4.2
    vertex 10.980603577495245 8.749931268382763 4.200000000000002
  endloop
endfacet
facet normal 1.879413954762992e-17 2.164704263205556e-16 1.0
  outer loop
    vertex 11.264138133492684 14.934909574451979 4.2
    vertex 11.350726188842513 9.449236520782163 4.200000000000002
    vertex 11.309062068926565 14.67750703066175 4.200000000000001
  endloop
endfacet
facet normal 1.879413954762992e-17 2.164704263205556e-16 1.0
  outer loop
    vertex 11.309062068926565 14.67750703066175 4.200000000000001
    vertex 11.350726188842513 9.449236520782163 4.200000000000002
    vertex 11.750062790596331 13.32024636969644 4.200000000000001
  endloop
endfacet
facet normal 1.879413954762992e-17 2.164704263205556e-16 1.0
  outer loop
    vertex 11.750062790596331 13.32024636969644 4.200000000000001
    vertex 11.350726188842513 9.449236520782163 4.200000000000002
    vertex 11.628555831222634 10.19006664522288 4.200000000000002
  endloop
endfacet
facet normal 1.879413954762992e-17 2.164704263205556e-16 1.0
  outer loop
    vertex 11.750062790596331 13.32024636969644 4.200000000000001
    vertex 11.628555831222634 10.19006664522288 4.200000000000002
    vertex 11.809546926278776 10.960300899832665 4.200000000000002
  endloop
endfacet
facet normal 1.879413954762992e-17 2.164704263205556e-16 1.0
  outer loop
    vertex 11.750062790596331 13.32024636969644 4.200000000000001
    vertex 11.809546926278776 10.960300899832665 4.200000000000002
    vertex 11.870801499840006 12.538299601972392 4.200000000000001
  endloop
endfacet
facet normal 1.879413954762992e-17 2.164704263205556e-16 1.0
  outer loop
    vertex 11.870801499840006 12.538299601972392 4.200000000000001
    vertex 11.809546926278776 10.960300899832665 4.200000000000002
    vertex 11.89073827376816 11.747337460963578 4.200000000000002
  endloop
endfacet
facet normal 1.879413954762992e-17 2.164704263205556e-16 1.0
  outer loop
    vertex 9.012296695824412 12.583105047588015 4.200000000000002
    vertex 8.577358507572884 19.15761472235022 4.2
    vertex 8.577358507572884 16.351622467877828 4.200000000000001
  endloop
endfacet
facet normal 1.879413954762992e-17 2.164704263205556e-16 1.0
  outer loop
    vertex 8.577358507572884 19.15761472235022 4.2
    vertex 9.012296695824412 12.583105047588015 4.200000000000002
    vertex 14.128448045263545 22.096518207300413 4.2
  endloop
endfacet
facet normal 1.879413954762992e-17 2.164704263205556e-16 1.0
  outer loop
    vertex 14.128448045263545 22.096518207300413 4.2
    vertex 9.012296695824412 12.583105047588015 4.200000000000002
    vertex 9.168220601774138 11.951636477248966 4.200000000000002
  endloop
endfacet
facet normal 1.879413954762992e-17 2.164704263205556e-16 1.0
  outer loop
    vertex 14.128448045263545 22.096518207300413 4.2
    vertex 9.168220601774138 11.951636477248966 4.200000000000002
    vertex 9.231810860797607 11.304318086709973 4.200000000000002
  endloop
endfacet
facet normal 1.879413954762992e-17 2.164704263205556e-16 1.0
  outer loop
    vertex 14.128448045263545 22.096518207300413 4.2
    vertex 9.231810860797607 11.304318086709973 4.200000000000002
    vertex 11.292810982349117 15.194624990365249 4.2
  endloop
endfacet
facet normal 1.879413954762992e-17 2.164704263205556e-16 1.0
  outer loop
    vertex 11.292810982349117 15.194624990365249 4.2
    vertex 9.231810860797607 11.304318086709973 4.200000000000002
    vertex 11.264138133492684 14.934909574451979 4.2
  endloop
endfacet
facet normal 1.879413954762992e-17 2.164704263205556e-16 1.0
  outer loop
    vertex 11.264138133492684 14.934909574451979 4.2
    vertex 9.231810860797607 11.304318086709973 4.200000000000002
    vertex 10.980603577495245 8.749931268382763 4.200000000000002
  endloop
endfacet
facet normal 1.879413954762992e-17 2.164704263205556e-16 1.0
  outer loop
    vertex 14.128448045263545 22.096518207300413 4.2
    vertex 11.292810982349117 15.194624990365249 4.2
    vertex 11.392803629197402 15.436028594523972 4.2
  endloop
endfacet
facet normal 1.879413954762992e-17 2.164704263205556e-16 1.0
  outer loop
    vertex 14.128448045263545 22.096518207300413 4.2
    vertex 11.392803629197402 15.436028594523972 4.2
    vertex 11.556175395106033 15.639949892157256 4.2
  endloop
endfacet
facet normal 1.879413954762992e-17 2.164704263205556e-16 1.0
  outer loop
    vertex 14.128448045263545 22.096518207300413 4.2
    vertex 11.556175395106033 15.639949892157256 4.2
    vertex 11.76995249869765 15.790194956983115 4.2
  endloop
endfacet
facet normal 1.879413954762992e-17 2.164704263205556e-16 1.0
  outer loop
    vertex 14.128448045263545 22.096518207300413 4.2
    vertex 11.76995249869765 15.790194956983115 4.2
    vertex 12.438926261462361 16.200142606050246 4.2
  endloop
endfacet
facet normal 1.879413954762992e-17 2.164704263205556e-16 1.0
  outer loop
    vertex 14.128448045263545 22.096518207300413 4.2
    vertex 12.438926261462361 16.200142606050246 4.2
    vertex 13.035533905932713 16.709693671992234 4.2
  endloop
endfacet
facet normal 1.879413954762992e-17 2.164704263205556e-16 1.0
  outer loop
    vertex 14.128448045263545 22.096518207300413 4.2
    vertex 13.035533905932713 16.709693671992234 4.2
    vertex 13.545084971874726 17.306301316462616 4.2
  endloop
endfacet
facet normal 1.879413954762992e-17 2.164704263205556e-16 1.0
  outer loop
    vertex 14.128448045263545 22.096518207300413 4.2
    vertex 13.545084971874726 17.306301316462616 4.2
    vertex 13.955032620941898 17.975275079227277 4.2
  endloop
endfacet
facet normal 1.879413954762992e-17 2.164704263205556e-16 1.0
  outer loop
    vertex 14.128448045263545 22.096518207300413 4.2
    vertex 13.955032620941898 17.975275079227277 4.2
    vertex 14.255282581475766 18.700142606050253 4.2
  endloop
endfacet
facet normal 1.879413954762992e-17 2.164704263205556e-16 1.0
  outer loop
    vertex 14.128448045263545 22.096518207300413 4.2
    vertex 14.255282581475766 18.700142606050253 4.2
    vertex 14.255282581475676 21.790312549799655 4.2
  endloop
endfacet
facet normal 1.879413954762992e-17 2.164704263205556e-16 1.0
  outer loop
    vertex 14.255282581475676 21.790312549799655 4.2
    vertex 14.255282581475766 18.700142606050253 4.2
    vertex 14.438441702975693 21.027399903126064 4.2
  endloop
endfacet
facet normal 1.879413954762992e-17 2.164704263205556e-16 1.0
  outer loop
    vertex 14.438441702975693 21.027399903126064 4.2
    vertex 14.255282581475766 18.700142606050253 4.2
    vertex 14.438441702975648 19.46305525272373 4.2
  endloop
endfacet
facet normal 1.879413954762992e-17 2.164704263205556e-16 1.0
  outer loop
    vertex 14.438441702975693 21.027399903126064 4.2
    vertex 14.438441702975648 19.46305525272373 4.2
    vertex 14.499999999999968 20.245227577924904 4.2
  endloop
endfacet
facet normal -0.18001448879824433 -0.9832857481031956 0.02727492254518851
  outer loop
    vertex 2.1904735543971734 23.643916777466224 3.2999999999999994
    vertex 1.6904735543971734 23.643916777466224 7.108001951623413e-18
    vertex 6.227201148634847 22.904895129185203 3.2999999999999994
  endloop
endfacet
facet normal -0.5747151252191779 0.720699147854664 0.3876793302793765
  outer loop
    vertex 7.06319623559752 5.164441190659022 2.3499999999999983
    vertex 6.4062389605292624 5.178477133045717 1.350000918174937
    vertex 5.895773470997002 4.771410968738605 1.350000918174937
  endloop
endfacet
facet normal -0.8875899889343485 0.4606343577540903 9.093096103184114e-18
  outer loop
    vertex 8.865089067086998 9.401525332086395 2.0000000000000018
    vertex 8.565476666471968 8.824206330865785 2.0000000000000018
    vertex 8.865089067086998 9.401525332086395 4.200000000000002
  endloop
endfacet
facet normal -0.21648415693247755 -0.7028538176990728 0.6775921492631634
  outer loop
    vertex 8.865089067086998 9.401525332086395 4.200000000000002
    vertex 10.059448747954352 7.250145647369403 2.3500000000000005
    vertex 10.980603577495245 8.749931268382763 4.200000000000002
  endloop
endfacet
facet normal -0.4191668690534901 0.7896309847463033 0.4480870940079369
  outer loop
    vertex 14.128448045263545 22.096518207300413 4.2
    vertex 13.955032620941875 22.515180076622652 3.2999999999999994
    vertex 8.577358507572884 19.660501290664037 3.2999999999999994
  endloop
endfacet
facet normal 0.3826834323650922 0.9238795325112857 -0.0
  outer loop
    vertex 11.045084971874752 25.00051015940072 3.2999999999999994
    vertex 11.769952498697684 24.700260198866815 9.853975475852781e-19
    vertex 11.045084971874752 25.00051015940072 9.853975475852781e-19
  endloop
endfacet
facet normal 0.3826834323650922 0.9238795325112857 -0.0
  outer loop
    vertex 11.769952498697684 24.700260198866815 9.853975475852781e-19
    vertex 11.045084971874752 25.00051015940072 3.2999999999999994
    vertex 11.769952498697684 24.700260198866815 3.2999999999999994
  endloop
endfacet
facet normal 0.9969173337331273 -0.07845909572785359 6.617714056203431e-17
  outer loop
    vertex 14.499999999999968 20.245227577924904 9.853975475852781e-19
    vertex 14.438441702975648 19.46305525272373 4.2
    vertex 14.438441702975648 19.46305525272373 9.853975475852781e-19
  endloop
endfacet
facet normal 0.9969173337331273 -0.07845909572785359 6.617714056203431e-17
  outer loop
    vertex 14.438441702975648 19.46305525272373 4.2
    vertex 14.499999999999968 20.245227577924904 9.853975475852781e-19
    vertex 14.499999999999968 20.245227577924904 4.2
  endloop
endfacet
facet normal -0.9989313182278667 0.046219275887195516 -6.536908853202167e-17
  outer loop
    vertex 9.231810860797607 11.304318086709973 4.200000000000002
    vertex 9.201748256977153 10.654578862386709 2.4094314806332276e-15
    vertex 9.201748256977153 10.654578862386709 4.200000000000002
  endloop
endfacet
facet normal -0.9989313182278667 0.046219275887195516 -6.536908853202167e-17
  outer loop
    vertex 9.201748256977153 10.654578862386709 2.4094314806332276e-15
    vertex 9.231810860797607 11.304318086709973 4.200000000000002
    vertex 9.231810860797607 11.304318086709973 2.329028749977676e-15
  endloop
endfacet
facet normal -0.8875899889343485 0.4606343577540903 -7.0278848668163e-17
  outer loop
    vertex 8.865089067086998 9.401525332086395 2.0000000000000018
    vertex 8.565476666471968 8.824206330865785 2.145459200494852e-15
    vertex 8.565476666471968 8.824206330865785 2.0000000000000018
  endloop
endfacet
facet normal -0.8875899889343485 0.4606343577540903 -7.0278848668163e-17
  outer loop
    vertex 8.565476666471968 8.824206330865785 2.145459200494852e-15
    vertex 8.865089067086998 9.401525332086395 2.0000000000000018
    vertex 8.865089067086998 9.401525332086395 2.3166846632799116e-15
  endloop
endfacet
facet normal 0.852640164354071 0.5224985647159839 -0.0
  outer loop
    vertex 13.545084971874703 23.184153839387335 9.853975475852781e-19
    vertex 13.955032620941875 22.515180076622652 3.2999999999999994
    vertex 13.955032620941875 22.515180076622652 9.853975475852781e-19
  endloop
endfacet
facet normal 0.852640164354071 0.5224985647159839 -0.0
  outer loop
    vertex 13.955032620941875 22.515180076622652 3.2999999999999994
    vertex 13.545084971874703 23.184153839387335 9.853975475852781e-19
    vertex 13.545084971874703 23.184153839387335 3.2999999999999994
  endloop
endfacet
facet normal 0.5224985647160615 0.8526401643540232 -0.0
  outer loop
    vertex 11.769952498697684 24.700260198866815 3.2999999999999994
    vertex 12.438926261462248 24.290312549799634 9.853975475852781e-19
    vertex 11.769952498697684 24.700260198866815 9.853975475852781e-19
  endloop
endfacet
facet normal 0.5224985647160615 0.8526401643540232 -0.0
  outer loop
    vertex 12.438926261462248 24.290312549799634 9.853975475852781e-19
    vertex 11.769952498697684 24.700260198866815 3.2999999999999994
    vertex 12.438926261462248 24.290312549799634 3.2999999999999994
  endloop
endfacet
facet normal -0.9897659783314647 0.07920026884608607 0.11870394076131605
  outer loop
    vertex 8.449397577601394 8.347470848803312 1.3502022416670425
    vertex 8.527457877601767 7.824511706325845 2.3500000000000005
    vertex 8.546467272036868 8.324359018595816 2.175000000000001
  endloop
endfacet
facet normal 0.9882881227027968 0.15259943159979864 5.890772528665711e-17
  outer loop
    vertex 11.750062790596331 13.32024636969644 1.3699880264975577e-15
    vertex 11.870801499840006 12.538299601972392 4.200000000000001
    vertex 11.870801499840006 12.538299601972392 1.7421963082872474e-15
  endloop
endfacet
facet normal 0.9882881227027968 0.15259943159979864 5.890772528665711e-17
  outer loop
    vertex 11.870801499840006 12.538299601972392 4.200000000000001
    vertex 11.750062790596331 13.32024636969644 1.3699880264975577e-15
    vertex 11.750062790596331 13.32024636969644 4.200000000000001
  endloop
endfacet
facet normal 0.9238795325112913 -0.3826834323650789 7.033894219718612e-17
  outer loop
    vertex 11.392803629197402 15.436028594523972 9.544970781330932e-17
    vertex 11.292810982349117 15.194624990365249 4.2
    vertex 11.292810982349117 15.194624990365249 2.0650678692047466e-16
  endloop
endfacet
facet normal 0.9238795325112913 -0.3826834323650789 7.033894219718612e-17
  outer loop
    vertex 11.292810982349117 15.194624990365249 4.2
    vertex 11.392803629197402 15.436028594523972 9.544970781330932e-17
    vertex 11.392803629197402 15.436028594523972 4.2
  endloop
endfacet
facet normal 0.2334453638558898 0.9723699203976803 -0.0
  outer loop
    vertex 10.499999999999993 25.13137348304162 3.2999999999999994
    vertex 11.045084971874752 25.00051015940072 9.853975475852781e-19
    vertex 10.499999999999993 25.13137348304162 9.853975475852781e-19
  endloop
endfacet
facet normal 0.2334453638558898 0.9723699203976803 -0.0
  outer loop
    vertex 11.045084971874752 25.00051015940072 9.853975475852781e-19
    vertex 10.499999999999993 25.13137348304162 3.2999999999999994
    vertex 11.045084971874752 25.00051015940072 3.2999999999999994
  endloop
endfacet
facet normal 0.5750052520432818 -0.8181497174250213 6.063615159886023e-17
  outer loop
    vertex 11.76995249869765 15.790194956983115 4.2
    vertex 11.556175395106033 15.639949892157256 2.5079825580470216e-17
    vertex 11.76995249869765 15.790194956983115 9.853975475852781e-19
  endloop
endfacet
facet normal 0.5750052520432818 -0.8181497174250213 6.063615159886023e-17
  outer loop
    vertex 11.556175395106033 15.639949892157256 2.5079825580470216e-17
    vertex 11.76995249869765 15.790194956983115 4.2
    vertex 11.556175395106033 15.639949892157256 4.2
  endloop
endfacet
facet normal 0.9723699203976495 0.23344536385601897 5.553745932541452e-17
  outer loop
    vertex 14.255282581475676 21.790312549799655 9.853975475852781e-19
    vertex 14.438441702975693 21.027399903126064 4.2
    vertex 14.438441702975693 21.027399903126064 9.853975475852781e-19
  endloop
endfacet
facet normal 0.9723699203976495 0.23344536385601897 5.553745932541452e-17
  outer loop
    vertex 14.438441702975693 21.027399903126064 4.2
    vertex 14.255282581475676 21.790312549799655 9.853975475852781e-19
    vertex 14.255282581475676 21.790312549799655 4.2
  endloop
endfacet
facet normal 0.5224985647159313 -0.8526401643541031 5.827333988234102e-17
  outer loop
    vertex 12.438926261462361 16.200142606050246 4.2
    vertex 11.76995249869765 15.790194956983115 9.853975475852781e-19
    vertex 12.438926261462361 16.200142606050246 9.853975475852781e-19
  endloop
endfacet
facet normal 0.5224985647159313 -0.8526401643541031 5.827333988234102e-17
  outer loop
    vertex 11.76995249869765 15.790194956983115 9.853975475852781e-19
    vertex 12.438926261462361 16.200142606050246 4.2
    vertex 11.76995249869765 15.790194956983115 4.2
  endloop
endfacet
facet normal 0.9851093261547708 0.17192910027942807 5.814211469585183e-17
  outer loop
    vertex 11.264138133492684 14.934909574451979 3.49431728320307e-16
    vertex 11.309062068926565 14.67750703066175 4.200000000000001
    vertex 11.309062068926565 14.67750703066175 5.128744867171533e-16
  endloop
endfacet
facet normal 0.9851093261547708 0.17192910027942807 5.814211469585183e-17
  outer loop
    vertex 11.309062068926565 14.67750703066175 4.200000000000001
    vertex 11.264138133492684 14.934909574451979 3.49431728320307e-16
    vertex 11.264138133492684 14.934909574451979 4.2
  endloop
endfacet
facet normal 0.6494480483299591 0.7604059656002228 -0.0
  outer loop
    vertex 12.438926261462248 24.290312549799634 3.2999999999999994
    vertex 13.035533905932802 23.78076148385778 9.853975475852781e-19
    vertex 12.438926261462248 24.290312549799634 9.853975475852781e-19
  endloop
endfacet
facet normal 0.6494480483299591 0.7604059656002228 -0.0
  outer loop
    vertex 13.035533905932802 23.78076148385778 9.853975475852781e-19
    vertex 12.438926261462248 24.290312549799634 3.2999999999999994
    vertex 13.035533905932802 23.78076148385778 3.2999999999999994
  endloop
endfacet
facet normal 0.9238795325113095 -0.3826834323650351 7.033894219718601e-17
  outer loop
    vertex 14.255282581475766 18.700142606050253 9.853975475852781e-19
    vertex 13.955032620941898 17.975275079227277 4.2
    vertex 13.955032620941898 17.975275079227277 9.853975475852781e-19
  endloop
endfacet
facet normal 0.9238795325113095 -0.3826834323650351 7.033894219718601e-17
  outer loop
    vertex 13.955032620941898 17.975275079227277 4.2
    vertex 14.255282581475766 18.700142606050253 9.853975475852781e-19
    vertex 14.255282581475766 18.700142606050253 4.2
  endloop
endfacet
facet normal 0.76040596560006 0.6494480483301499 -0.0
  outer loop
    vertex 13.065882728668942 23.745227577925007 9.853975475852781e-19
    vertex 13.545084971874703 23.184153839387335 3.2999999999999994
    vertex 13.545084971874703 23.184153839387335 9.853975475852781e-19
  endloop
endfacet
facet normal 0.76040596560006 0.6494480483301499 -0.0
  outer loop
    vertex 13.545084971874703 23.184153839387335 3.2999999999999994
    vertex 13.065882728668942 23.745227577925007 9.853975475852781e-19
    vertex 13.065882728668942 23.745227577925007 3.2999999999999994
  endloop
endfacet
facet normal 0.9947210188776302 -0.10261624921546063 6.673856198734868e-17
  outer loop
    vertex 11.89073827376816 11.747337460963578 2.0258213381825777e-15
    vertex 11.809546926278776 10.960300899832665 4.200000000000002
    vertex 11.809546926278776 10.960300899832665 2.2162227193335086e-15
  endloop
endfacet
facet normal 0.9947210188776302 -0.10261624921546063 6.673856198734868e-17
  outer loop
    vertex 11.809546926278776 10.960300899832665 4.200000000000002
    vertex 11.89073827376816 11.747337460963578 2.0258213381825777e-15
    vertex 11.89073827376816 11.747337460963578 4.200000000000002
  endloop
endfacet
facet normal 0.9363215542871535 -0.3511437696689056 7.021961774885402e-17
  outer loop
    vertex 11.628555831222634 10.19006664522288 2.310285289549801e-15
    vertex 11.350726188842513 9.449236520782163 4.200000000000002
    vertex 11.350726188842513 9.449236520782163 2.306470088554571e-15
  endloop
endfacet
facet normal 0.9363215542871535 -0.3511437696689056 7.021961774885402e-17
  outer loop
    vertex 11.350726188842513 9.449236520782163 4.200000000000002
    vertex 11.628555831222634 10.19006664522288 2.310285289549801e-15
    vertex 11.628555831222634 10.19006664522288 4.200000000000002
  endloop
endfacet
facet normal 0.9969173337331317 0.07845909572779813 6.161589384264521e-17
  outer loop
    vertex 14.438441702975693 21.027399903126064 9.853975475852781e-19
    vertex 14.499999999999968 20.245227577924904 4.2
    vertex 14.499999999999968 20.245227577924904 9.853975475852781e-19
  endloop
endfacet
facet normal 0.9969173337331317 0.07845909572779813 6.161589384264521e-17
  outer loop
    vertex 14.499999999999968 20.245227577924904 4.2
    vertex 14.438441702975693 21.027399903126064 9.853975475852781e-19
    vertex 14.438441702975693 21.027399903126064 4.2
  endloop
endfacet
facet normal 0.7604059656012897 0.64944804832871 -0.0
  outer loop
    vertex 13.035533905932802 23.78076148385778 9.853975475852781e-19
    vertex 13.065882728668942 23.745227577925007 3.2999999999999994
    vertex 13.065882728668942 23.745227577925007 9.853975475852781e-19
  endloop
endfacet
facet normal 0.7604059656012897 0.64944804832871 -0.0
  outer loop
    vertex 13.065882728668942 23.745227577925007 3.2999999999999994
    vertex 13.035533905932802 23.78076148385778 9.853975475852781e-19
    vertex 13.035533905932802 23.78076148385778 3.2999999999999994
  endloop
endfacet
facet normal 0.9939609554551818 -0.10973431109102683 6.689675190484428e-17
  outer loop
    vertex 11.292810982349117 15.194624990365249 2.0650678692047466e-16
    vertex 11.264138133492684 14.934909574451979 4.2
    vertex 11.264138133492684 14.934909574451979 3.49431728320307e-16
  endloop
endfacet
facet normal 0.9939609554551818 -0.10973431109102683 6.689675190484428e-17
  outer loop
    vertex 11.264138133492684 14.934909574451979 4.2
    vertex 11.292810982349117 15.194624990365249 2.0650678692047466e-16
    vertex 11.292810982349117 15.194624990365249 4.2
  endloop
endfacet
facet normal 0.23344536385611156 0.9723699203976272 -0.0
  outer loop
    vertex 10.282172325201126 25.183669280900688 3.2999999999999994
    vertex 10.499999999999993 25.13137348304162 9.853975475852781e-19
    vertex 10.282172325201126 25.183669280900688 9.853975475852781e-19
  endloop
endfacet
facet normal 0.23344536385611156 0.9723699203976272 -0.0
  outer loop
    vertex 10.499999999999993 25.13137348304162 9.853975475852781e-19
    vertex 10.282172325201126 25.183669280900688 3.2999999999999994
    vertex 10.499999999999993 25.13137348304162 3.2999999999999994
  endloop
endfacet
facet normal 0.07845909572769587 0.9969173337331398 -0.0
  outer loop
    vertex 9.499999999999943 25.245227577924886 3.2999999999999994
    vertex 10.282172325201126 25.183669280900688 9.853975475852781e-19
    vertex 9.499999999999943 25.245227577924886 9.853975475852781e-19
  endloop
endfacet
facet normal 0.07845909572769587 0.9969173337331398 -0.0
  outer loop
    vertex 10.282172325201126 25.183669280900688 9.853975475852781e-19
    vertex 9.499999999999943 25.245227577924886 3.2999999999999994
    vertex 10.282172325201126 25.183669280900688 3.2999999999999994
  endloop
endfacet
facet normal 0.8838390330605066 -0.46779115386961795 7.024646594625466e-17
  outer loop
    vertex 11.350726188842513 9.449236520782163 2.306470088554571e-15
    vertex 10.980603577495245 8.749931268382763 2.0000000000000018
    vertex 10.980603577495245 8.749931268382763 2.2048395369553647e-15
  endloop
endfacet
facet normal 0.8838390330605066 -0.46779115386961795 7.024646594625466e-17
  outer loop
    vertex 10.980603577495245 8.749931268382763 2.0000000000000018
    vertex 11.350726188842513 9.449236520782163 2.306470088554571e-15
    vertex 10.980603577495245 8.749931268382763 4.200000000000002
  endloop
endfacet
facet normal 0.8838390330605066 -0.46779115386961795 7.024646594625466e-17
  outer loop
    vertex 10.980603577495245 8.749931268382763 4.200000000000002
    vertex 11.350726188842513 9.449236520782163 2.306470088554571e-15
    vertex 11.350726188842513 9.449236520782163 4.200000000000002
  endloop
endfacet
facet normal 0.8526401643540631 -0.5224985647159966 6.983701974446204e-17
  outer loop
    vertex 13.955032620941898 17.975275079227277 9.853975475852781e-19
    vertex 13.545084971874726 17.306301316462616 4.2
    vertex 13.545084971874726 17.306301316462616 9.853975475852781e-19
  endloop
endfacet
facet normal 0.8526401643540631 -0.5224985647159966 6.983701974446204e-17
  outer loop
    vertex 13.545084971874726 17.306301316462616 4.2
    vertex 13.955032620941898 17.975275079227277 9.853975475852781e-19
    vertex 13.955032620941898 17.975275079227277 4.2
  endloop
endfacet
facet normal 0.8521119792548963 -0.5233595081875396 0.0
  outer loop
    vertex 10.980603577495245 8.749931268382763 2.0000000000000018
    vertex 10.059448747954352 7.250145647369403 2.3500000000000005
    vertex 10.980603577495245 8.749931268382763 2.2048395369553647e-15
  endloop
endfacet
facet normal -0.9704115126785562 0.24145702735873387 0.0
  outer loop
    vertex 8.565476666471968 8.824206330865785 2.145459200494852e-15
    vertex 8.447192678063006 8.348825078254494 1.0574874309554614e-15
    vertex 8.565476666471968 8.824206330865785 2.0000000000000018
  endloop
endfacet
facet normal -0.7646551288091967 0.4696442978029957 0.4412898905786556
  outer loop
    vertex 6.810016497831471 5.691849490009592 1.350000918174937
    vertex 7.279010704232304 5.515821248044607 2.3499999999999983
    vertex 7.324875989691292 5.590497180286468 2.3499999999999983
  endloop
endfacet
facet normal -0.8583471828889853 -0.500972613869433 -0.11075447521148174
  outer loop
    vertex 1.8858756975931639 2.013247158548476 1.5499999999999985
    vertex 1.9211226132288792 2.2955287482427407 -5.287437154777307e-16
    vertex 2.0858756975931634 2.013247158548475 -5.287437154777307e-16
  endloop
endfacet
facet normal -0.8583471828889853 -0.500972613869433 -0.11075447521148174
  outer loop
    vertex 1.9211226132288792 2.2955287482427407 -5.287437154777307e-16
    vertex 1.8858756975931639 2.013247158548476 1.5499999999999985
    vertex 1.7211226132288795 2.2955287482427407 1.5499999999999985
  endloop
endfacet
facet normal -0.9721796482489421 0.23422939606981155 0.0018225112714267088
  outer loop
    vertex 8.565476666471968 8.824206330865785 2.0000000000000018
    vertex 8.447192678063006 8.348825078254494 1.0574874309554614e-15
    vertex 8.449397577601394 8.347470848803312 1.3502022416670425
  endloop
endfacet
facet normal -0.318506462017524 0.9479206895374105 0.0
  outer loop
    vertex 2.446845117213461 3.5328191008691747 1.5499999999999985
    vertex 5.304862499149394 4.493128349050296 1.350000918174937
    vertex 5.304862499149394 4.493128349050296 -5.287437154777307e-16
  endloop
endfacet
facet normal -0.318506462017524 0.9479206895374105 0.0
  outer loop
    vertex 5.304862499149394 4.493128349050296 1.350000918174937
    vertex 2.446845117213461 3.5328191008691747 1.5499999999999985
    vertex 5.304862499149394 4.493128349050296 2.3499999999999983
  endloop
endfacet
facet normal -0.7646551288092085 0.4696442978029748 0.4412898905786573
  outer loop
    vertex 6.810016497831471 5.691849490009592 1.350000918174937
    vertex 7.06319623559752 5.164441190659022 2.3499999999999983
    vertex 7.279010704232304 5.515821248044607 2.3499999999999983
  endloop
endfacet
facet normal -0.7871307595321992 0.42371666960859916 0.44820681754527153
  outer loop
    vertex 8.527457877601767 7.824511706325845 2.3500000000000005
    vertex 6.810016497831471 5.691849490009592 1.350000918174937
    vertex 7.324875989691292 5.590497180286468 2.3499999999999983
  endloop
endfacet
facet normal -0.42605631606656685 0.9046966428255308 0.0
  outer loop
    vertex 5.304862499149394 4.493128349050296 2.3499999999999983
    vertex 5.895773470997002 4.771410968738605 1.350000918174937
    vertex 5.304862499149394 4.493128349050296 1.350000918174937
  endloop
endfacet
facet normal -0.8053466129917712 0.4971360038609444 0.3229127228956044
  outer loop
    vertex 8.449397577601394 8.347470848803312 1.3502022416670425
    vertex 6.810016497831471 5.691849490009592 1.350000918174937
    vertex 8.527457877601767 7.824511706325845 2.3500000000000005
  endloop
endfacet
facet normal -0.33946534385631644 0.9395981411654243 -0.043801979852427925
  outer loop
    vertex 2.446845117213461 3.5328191008691747 1.5499999999999985
    vertex 5.304862499149394 4.493128349050296 -5.287437154777307e-16
    vertex 2.6468451172134606 3.5328191008691747 -5.287437154777307e-16
  endloop
endfacet
facet normal -0.3281549390288802 0.9436744367214248 -0.042342572777920015
  outer loop
    vertex 2.139065841543832 3.4257914168379973 1.5499999999999985
    vertex 2.6468451172134606 3.5328191008691747 -5.287437154777307e-16
    vertex 2.3390658415438317 3.4257914168379973 -5.287437154777307e-16
  endloop
endfacet
facet normal -0.3281549390288802 0.9436744367214248 -0.042342572777920015
  outer loop
    vertex 2.6468451172134606 3.5328191008691747 -5.287437154777307e-16
    vertex 2.139065841543832 3.4257914168379973 1.5499999999999985
    vertex 2.446845117213461 3.5328191008691747 1.5499999999999985
  endloop
endfacet
facet normal 0.0 0.0 1.0
  outer loop
    vertex 1.7211226132288795 2.2955287482427407 1.5499999999999985
    vertex 1.7221615232222467 2.938082308343207 1.5499999999999985
    vertex 1.664324096824787 2.6173989134059013 1.5499999999999985
  endloop
endfacet
facet normal 0.0 0.0 1.0
  outer loop
    vertex 1.7221615232222467 2.938082308343207 1.5499999999999985
    vertex 1.7211226132288795 2.2955287482427407 1.5499999999999985
    vertex 1.8858756975931639 2.013247158548476 1.5499999999999985
  endloop
endfacet
facet normal 0.0 0.0 1.0
  outer loop
    vertex 1.7221615232222467 2.938082308343207 1.5499999999999985
    vertex 1.8858756975931639 2.013247158548476 1.5499999999999985
    vertex 1.887175448702359 3.21906880637904 1.5499999999999985
  endloop
endfacet
facet normal 0.0 0.0 1.0
  outer loop
    vertex 1.887175448702359 3.21906880637904 1.5499999999999985
    vertex 1.8858756975931639 2.013247158548476 1.5499999999999985
    vertex 2.138192583550619 1.8054908981166875 1.5499999999999985
  endloop
endfacet
facet normal 0.0 0.0 1.0
  outer loop
    vertex 1.887175448702359 3.21906880637904 1.5499999999999985
    vertex 2.138192583550619 1.8054908981166875 1.5499999999999985
    vertex 2.139065841543832 3.4257914168379973 1.5499999999999985
  endloop
endfacet
facet normal 0.0 0.0 1.0
  outer loop
    vertex 2.139065841543832 3.4257914168379973 1.5499999999999985
    vertex 2.138192583550619 1.8054908981166875 1.5499999999999985
    vertex 2.446845117213461 1.6979730477318566 1.5499999999999985
  endloop
endfacet
facet normal 0.0 0.0 1.0
  outer loop
    vertex 2.139065841543832 3.4257914168379973 1.5499999999999985
    vertex 2.446845117213461 1.6979730477318566 1.5499999999999985
    vertex 2.446845117213461 3.5328191008691747 1.5499999999999985
  endloop
endfacet
facet normal -0.3107905475771508 -0.9496504477358052 -0.03966437509755615
  outer loop
    vertex 4.603303546000895 0.9726590578689512 1.9949951853400236
    vertex 2.446845117213461 1.6979730477318566 1.5499999999999985
    vertex 2.6468451172134606 1.697973047731856 -5.287437154777307e-16
  endloop
endfacet
facet normal -0.3107905475771508 -0.9496504477358052 -0.03966437509755615
  outer loop
    vertex 2.446845117213461 1.6979730477318566 1.5499999999999985
    vertex 4.603303546000895 0.9726590578689512 1.9949951853400236
    vertex 4.601728891611231 0.9680429861151376 2.2377918088900297
  endloop
endfacet
facet normal -0.6322812346429717 0.7704312954781027 -0.08158467543780269
  outer loop
    vertex 1.887175448702359 3.21906880637904 1.5499999999999985
    vertex 2.3390658415438317 3.4257914168379973 -5.287437154777307e-16
    vertex 2.0871754487023586 3.21906880637904 -5.287437154777307e-16
  endloop
endfacet
facet normal -0.6322812346429717 0.7704312954781027 -0.08158467543780269
  outer loop
    vertex 2.3390658415438317 3.4257914168379973 -5.287437154777307e-16
    vertex 1.887175448702359 3.21906880637904 1.5499999999999985
    vertex 2.139065841543832 3.4257914168379973 1.5499999999999985
  endloop
endfacet
facet normal -0.695916970713461 0.5473524952985876 0.4648707516755701
  outer loop
    vertex 6.810016497831471 5.691849490009592 1.350000918174937
    vertex 6.4062389605292624 5.178477133045717 1.350000918174937
    vertex 7.06319623559752 5.164441190659022 2.3499999999999983
  endloop
endfacet
facet normal -0.6335177650769881 -0.7693978961246961 -0.081744227751869
  outer loop
    vertex 2.138192583550619 1.8054908981166875 1.5499999999999985
    vertex 2.0858756975931634 2.013247158548475 -5.287437154777307e-16
    vertex 2.3381925835506188 1.8054908981166868 -5.287437154777307e-16
  endloop
endfacet
facet normal -0.6335177650769881 -0.7693978961246961 -0.081744227751869
  outer loop
    vertex 2.0858756975931634 2.013247158548475 -5.287437154777307e-16
    vertex 2.138192583550619 1.8054908981166875 1.5499999999999985
    vertex 1.8858756975931639 2.013247158548476 1.5499999999999985
  endloop
endfacet
facet normal -0.9762823419460933 0.1760791453093038 -0.1259719150898183
  outer loop
    vertex 1.7221615232222467 2.938082308343207 1.5499999999999985
    vertex 1.8643240968247867 2.6173989134059017 -5.287437154777307e-16
    vertex 1.664324096824787 2.6173989134059013 1.5499999999999985
  endloop
endfacet
facet normal -0.9762823419460933 0.1760791453093038 -0.1259719150898183
  outer loop
    vertex 1.8643240968247867 2.6173989134059017 -5.287437154777307e-16
    vertex 1.7221615232222467 2.938082308343207 1.5499999999999985
    vertex 1.9221615232222464 2.938082308343207 -5.287437154777307e-16
  endloop
endfacet
facet normal -0.9769292338868215 -0.1723928997533224 -0.1260553850176543
  outer loop
    vertex 1.664324096824787 2.6173989134059013 1.5499999999999985
    vertex 1.9211226132288792 2.2955287482427407 -5.287437154777307e-16
    vertex 1.7211226132288795 2.2955287482427407 1.5499999999999985
  endloop
endfacet
facet normal -0.9769292338868215 -0.1723928997533224 -0.1260553850176543
  outer loop
    vertex 1.9211226132288792 2.2955287482427407 -5.287437154777307e-16
    vertex 1.664324096824787 2.6173989134059013 1.5499999999999985
    vertex 1.8643240968247867 2.6173989134059017 -5.287437154777307e-16
  endloop
endfacet
facet normal -0.35486756627045296 0.9335731313442726 0.050102084201510896
  outer loop
    vertex 5.9204690995908225 4.727131244746441 2.3499999999999988
    vertex 5.895773470997002 4.771410968738605 1.350000918174937
    vertex 5.304862499149394 4.493128349050296 2.3499999999999983
  endloop
endfacet
facet normal -0.32866256902165114 -0.9434948177031554 -0.042408073422148106
  outer loop
    vertex 2.446845117213461 1.6979730477318566 1.5499999999999985
    vertex 2.3381925835506188 1.8054908981166868 -5.287437154777307e-16
    vertex 2.6468451172134606 1.697973047731856 -5.287437154777307e-16
  endloop
endfacet
facet normal -0.32866256902165114 -0.9434948177031554 -0.042408073422148106
  outer loop
    vertex 2.3381925835506188 1.8054908981166868 -5.287437154777307e-16
    vertex 2.446845117213461 1.6979730477318566 1.5499999999999985
    vertex 2.138192583550619 1.8054908981166875 1.5499999999999985
  endloop
endfacet
facet normal -0.8570106360007127 0.5032935397723302 -0.11058201754847892
  outer loop
    vertex 1.887175448702359 3.21906880637904 1.5499999999999985
    vertex 1.9221615232222464 2.938082308343207 -5.287437154777307e-16
    vertex 1.7221615232222467 2.938082308343207 1.5499999999999985
  endloop
endfacet
facet normal -0.8570106360007127 0.5032935397723302 -0.11058201754847892
  outer loop
    vertex 1.9221615232222464 2.938082308343207 -5.287437154777307e-16
    vertex 1.887175448702359 3.21906880637904 1.5499999999999985
    vertex 2.0871754487023586 3.21906880637904 -5.287437154777307e-16
  endloop
endfacet
facet normal 0.6494480483301867 -0.7604059656000283 6.372901896175919e-17
  outer loop
    vertex 13.035533905932713 16.709693671992234 4.2
    vertex 12.438926261462361 16.200142606050246 9.853975475852781e-19
    vertex 13.035533905932713 16.709693671992234 9.853975475852781e-19
  endloop
endfacet
facet normal 0.6494480483301867 -0.7604059656000283 6.372901896175919e-17
  outer loop
    vertex 12.438926261462361 16.200142606050246 9.853975475852781e-19
    vertex 13.035533905932713 16.709693671992234 4.2
    vertex 12.438926261462361 16.200142606050246 4.2
  endloop
endfacet
facet normal 0.7604059656000288 -0.6494480483301862 6.76154780898499e-17
  outer loop
    vertex 13.545084971874726 17.306301316462616 9.853975475852781e-19
    vertex 13.035533905932713 16.709693671992234 4.2
    vertex 13.035533905932713 16.709693671992234 9.853975475852781e-19
  endloop
endfacet
facet normal 0.7604059656000288 -0.6494480483301862 6.76154780898499e-17
  outer loop
    vertex 13.035533905932713 16.709693671992234 4.2
    vertex 13.545084971874726 17.306301316462616 9.853975475852781e-19
    vertex 13.545084971874726 17.306301316462616 4.2
  endloop
endfacet
facet normal 0.9996824870084423 0.025197721496509114 6.334130807150434e-17
  outer loop
    vertex 11.870801499840006 12.538299601972392 1.7421963082872474e-15
    vertex 11.89073827376816 11.747337460963578 4.200000000000002
    vertex 11.89073827376816 11.747337460963578 2.0258213381825777e-15
  endloop
endfacet
facet normal 0.9996824870084423 0.025197721496509114 6.334130807150434e-17
  outer loop
    vertex 11.89073827376816 11.747337460963578 4.200000000000002
    vertex 11.870801499840006 12.538299601972392 1.7421963082872474e-15
    vertex 11.870801499840006 12.538299601972392 4.200000000000001
  endloop
endfacet
facet normal 0.8630327094649388 -0.5048935595244904 0.016032340574495093
  outer loop
    vertex 10.980603577495245 8.749931268382763 2.2048395369553647e-15
    vertex 6.9399714570017395 1.9167023177489475 2.3499999999999983
    vertex 6.9410139909743815 1.9160864452162674 2.2044792191486353
  endloop
endfacet
facet normal 0.8630327094649388 -0.5048935595244904 0.016032340574495093
  outer loop
    vertex 6.9399714570017395 1.9167023177489475 2.3499999999999983
    vertex 10.980603577495245 8.749931268382763 2.2048395369553647e-15
    vertex 10.059448747954352 7.250145647369403 2.3500000000000005
  endloop
endfacet
facet normal -3.462121104289828e-16 -1.0539521416544437e-16 1.0
  outer loop
    vertex 6.9399714570017395 1.9167023177489475 2.3499999999999983
    vertex 5.304862499149394 4.493128349050296 2.3499999999999983
    vertex 4.978633675626704 1.1242971564772228 2.3499999999999983
  endloop
endfacet
facet normal -3.462121104289828e-16 -1.0539521416544437e-16 1.0
  outer loop
    vertex 5.304862499149394 4.493128349050296 2.3499999999999983
    vertex 6.9399714570017395 1.9167023177489475 2.3499999999999983
    vertex 5.9204690995908225 4.727131244746441 2.3499999999999988
  endloop
endfacet
facet normal -3.462121104289828e-16 -1.0539521416544437e-16 1.0
  outer loop
    vertex 5.9204690995908225 4.727131244746441 2.3499999999999988
    vertex 6.9399714570017395 1.9167023177489475 2.3499999999999983
    vertex 7.06319623559752 5.164441190659022 2.3499999999999983
  endloop
endfacet
facet normal -3.462121104289828e-16 -1.0539521416544437e-16 1.0
  outer loop
    vertex 7.06319623559752 5.164441190659022 2.3499999999999983
    vertex 6.9399714570017395 1.9167023177489475 2.3499999999999983
    vertex 10.059448747954352 7.250145647369403 2.3500000000000005
  endloop
endfacet
facet normal -3.462121104289828e-16 -1.0539521416544437e-16 1.0
  outer loop
    vertex 7.06319623559752 5.164441190659022 2.3499999999999983
    vertex 10.059448747954352 7.250145647369403 2.3500000000000005
    vertex 7.279010704232304 5.515821248044607 2.3499999999999983
  endloop
endfacet
facet normal -3.462121104289828e-16 -1.0539521416544437e-16 1.0
  outer loop
    vertex 7.279010704232304 5.515821248044607 2.3499999999999983
    vertex 10.059448747954352 7.250145647369403 2.3500000000000005
    vertex 7.324875989691292 5.590497180286468 2.3499999999999983
  endloop
endfacet
facet normal -3.462121104289828e-16 -1.0539521416544437e-16 1.0
  outer loop
    vertex 7.324875989691292 5.590497180286468 2.3499999999999983
    vertex 10.059448747954352 7.250145647369403 2.3500000000000005
    vertex 8.527457877601767 7.824511706325845 2.3500000000000005
  endloop
endfacet
facet normal 0.8608464750147116 -0.5088647621742292 -1.6495784250731654e-05
  outer loop
    vertex 10.980603577495245 8.749931268382763 2.2048395369553647e-15
    vertex 6.9410139909743815 1.9160864452162674 2.2044792191486353
    vertex 6.940982603507937 1.916104809277666 -9.706838226059156e-17
  endloop
endfacet
facet normal 7.904562990735976e-17 -2.4327858893658396e-17 -1.0
  outer loop
    vertex 1.061311870995944 24.742221451926103 2.5618629414159904e-19
    vertex 1.0624058509742866 24.120212547379374 2.0647772608629963e-18
    vertex 0.9999999999999996 24.429678847276467 9.853975475851216e-19
  endloop
endfacet
facet normal 7.904562990735976e-17 -2.4327858893658396e-17 -1.0
  outer loop
    vertex 1.0624058509742866 24.120212547379374 2.0647772608629963e-18
    vertex 1.061311870995944 24.742221451926103 2.5618629414159904e-19
    vertex 1.2380278428650384 25.007199735059952 0.0
  endloop
endfacet
facet normal 7.904562990735976e-17 -2.4327858893658396e-17 -1.0
  outer loop
    vertex 1.0624058509742866 24.120212547379374 2.0647772608629963e-18
    vertex 1.2380278428650384 25.007199735059952 0.0
    vertex 1.2380278428650102 23.857875365546228 3.3359782536067168e-18
  endloop
endfacet
facet normal 7.904562990735976e-17 -2.4327858893658396e-17 -1.0
  outer loop
    vertex 1.2380278428650102 23.857875365546228 3.3359782536067168e-18
    vertex 1.2380278428650384 25.007199735059952 0.0
    vertex 1.500365024698148 23.68225337365549 4.607179246350437e-18
  endloop
endfacet
facet normal 7.904562990735976e-17 -2.4327858893658396e-17 -1.0
  outer loop
    vertex 1.500365024698148 23.68225337365549 4.607179246350437e-18
    vertex 1.2380278428650384 25.007199735059952 0.0
    vertex 1.5030061259988996 25.183915706929035 2.5618629414159904e-19
  endloop
endfacet
facet normal 7.904562990735976e-17 -2.4327858893658396e-17 -1.0
  outer loop
    vertex 1.500365024698148 23.68225337365549 4.607179246350437e-18
    vertex 1.5030061259988996 25.183915706929035 2.5618629414159904e-19
    vertex 1.6904735543971734 23.643916777466224 7.108001951623413e-18
  endloop
endfacet
facet normal 7.904562990735976e-17 -2.4327858893658396e-17 -1.0
  outer loop
    vertex 1.6904735543971734 23.643916777466224 7.108001951623413e-18
    vertex 1.5030061259988996 25.183915706929035 2.5618629414159904e-19
    vertex 1.815548730648537 25.245227577924965 9.853975475852781e-19
  endloop
endfacet
facet normal 7.904562990735976e-17 -2.4327858893658396e-17 -1.0
  outer loop
    vertex 1.6904735543971734 23.643916777466224 7.108001951623413e-18
    vertex 1.815548730648537 25.245227577924965 9.853975475852781e-19
    vertex 6.227201148634847 22.904895129185203 6.701332703147703e-17
  endloop
endfacet
facet normal 7.904562990735976e-17 -2.4327858893658396e-17 -1.0
  outer loop
    vertex 6.227201148634847 22.904895129185203 6.701332703147703e-17
    vertex 1.815548730648537 25.245227577924965 9.853975475852781e-19
    vertex 9.499999999999943 25.245227577924886 9.853975475852781e-19
  endloop
endfacet
facet normal 7.904562990735976e-17 -2.4327858893658396e-17 -1.0
  outer loop
    vertex 6.227201148634847 22.904895129185203 6.701332703147703e-17
    vertex 9.499999999999943 25.245227577924886 9.853975475852781e-19
    vertex 6.908097284862653 22.78877289605532 7.574545939817639e-17
  endloop
endfacet
facet normal 7.904562990735976e-17 -2.4327858893658396e-17 -1.0
  outer loop
    vertex 6.908097284862653 22.78877289605532 7.574545939817639e-17
    vertex 9.499999999999943 25.245227577924886 9.853975475852781e-19
    vertex 7.076253694519754 22.706725403292666 3.376657063533903e-17
  endloop
endfacet
facet normal 7.904562990735976e-17 -2.4327858893658396e-17 -1.0
  outer loop
    vertex 7.076253694519754 22.706725403292666 3.376657063533903e-17
    vertex 9.499999999999943 25.245227577924886 9.853975475852781e-19
    vertex 7.528871942441122 22.485882246042205 9.651339193054226e-17
  endloop
endfacet
facet normal 7.904562990735976e-17 -2.4327858893658396e-17 -1.0
  outer loop
    vertex 7.528871942441122 22.485882246042205 9.651339193054226e-17
    vertex 9.499999999999943 25.245227577924886 9.853975475852781e-19
    vertex 8.039435440971486 22.020663119903283 1.2764138111941277e-16
  endloop
endfacet
facet normal 7.904562990735976e-17 -2.4327858893658396e-17 -1.0
  outer loop
    vertex 8.039435440971486 22.020663119903283 1.2764138111941277e-16
    vertex 9.499999999999943 25.245227577924886 9.853975475852781e-19
    vertex 8.398590927211668 21.4306535792511 1.6661774094331149e-16
  endloop
endfacet
facet normal 7.904562990735976e-17 -2.4327858893658396e-17 -1.0
  outer loop
    vertex 8.398590927211668 21.4306535792511 1.6661774094331149e-16
    vertex 9.499999999999943 25.245227577924886 9.853975475852781e-19
    vertex 8.5773585075729 20.763460898259446 2.1029750827777432e-16
  endloop
endfacet
facet normal 7.904562990735976e-17 -2.4327858893658396e-17 -1.0
  outer loop
    vertex 8.5773585075729 20.763460898259446 2.1029750827777432e-16
    vertex 9.499999999999943 25.245227577924886 9.853975475852781e-19
    vertex 9.012296695824412 12.583105047588015 1.9229764071852076e-15
  endloop
endfacet
facet normal 7.904562990735976e-17 -2.4327858893658396e-17 -1.0
  outer loop
    vertex 9.012296695824412 12.583105047588015 1.9229764071852076e-15
    vertex 9.499999999999943 25.245227577924886 9.853975475852781e-19
    vertex 9.168220601774138 11.951636477248966 2.1657479412283634e-15
  endloop
endfacet
facet normal 7.904562990735976e-17 -2.4327858893658396e-17 -1.0
  outer loop
    vertex 9.168220601774138 11.951636477248966 2.1657479412283634e-15
    vertex 9.499999999999943 25.245227577924886 9.853975475852781e-19
    vertex 9.231810860797607 11.304318086709973 2.329028749977676e-15
  endloop
endfacet
facet normal 7.904562990735976e-17 -2.4327858893658396e-17 -1.0
  outer loop
    vertex 11.769952498697684 24.700260198866815 9.853975475852781e-19
    vertex 11.264138133492684 14.934909574451979 3.49431728320307e-16
    vertex 11.045084971874752 25.00051015940072 9.853975475852781e-19
  endloop
endfacet
facet normal 7.904562990735976e-17 -2.4327858893658396e-17 -1.0
  outer loop
    vertex 11.264138133492684 14.934909574451979 3.49431728320307e-16
    vertex 11.769952498697684 24.700260198866815 9.853975475852781e-19
    vertex 11.292810982349117 15.194624990365249 2.0650678692047466e-16
  endloop
endfacet
facet normal 7.904562990735976e-17 -2.4327858893658396e-17 -1.0
  outer loop
    vertex 11.292810982349117 15.194624990365249 2.0650678692047466e-16
    vertex 11.769952498697684 24.700260198866815 9.853975475852781e-19
    vertex 11.392803629197402 15.436028594523972 9.544970781330932e-17
  endloop
endfacet
facet normal 7.904562990735976e-17 -2.4327858893658396e-17 -1.0
  outer loop
    vertex 11.392803629197402 15.436028594523972 9.544970781330932e-17
    vertex 11.769952498697684 24.700260198866815 9.853975475852781e-19
    vertex 11.556175395106033 15.639949892157256 2.5079825580470216e-17
  endloop
endfacet
facet normal 7.904562990735976e-17 -2.4327858893658396e-17 -1.0
  outer loop
    vertex 11.556175395106033 15.639949892157256 2.5079825580470216e-17
    vertex 11.769952498697684 24.700260198866815 9.853975475852781e-19
    vertex 11.76995249869765 15.790194956983115 9.853975475852781e-19
  endloop
endfacet
facet normal 7.904562990735976e-17 -2.4327858893658396e-17 -1.0
  outer loop
    vertex 11.76995249869765 15.790194956983115 9.853975475852781e-19
    vertex 11.769952498697684 24.700260198866815 9.853975475852781e-19
    vertex 12.438926261462361 16.200142606050246 9.853975475852781e-19
  endloop
endfacet
facet normal 7.904562990735976e-17 -2.4327858893658396e-17 -1.0
  outer loop
    vertex 12.438926261462361 16.200142606050246 9.853975475852781e-19
    vertex 11.769952498697684 24.700260198866815 9.853975475852781e-19
    vertex 12.438926261462248 24.290312549799634 9.853975475852781e-19
  endloop
endfacet
facet normal 7.904562990735976e-17 -2.4327858893658396e-17 -1.0
  outer loop
    vertex 12.438926261462361 16.200142606050246 9.853975475852781e-19
    vertex 12.438926261462248 24.290312549799634 9.853975475852781e-19
    vertex 13.035533905932802 23.78076148385778 9.853975475852781e-19
  endloop
endfacet
facet normal 7.904562990735976e-17 -2.4327858893658396e-17 -1.0
  outer loop
    vertex 12.438926261462361 16.200142606050246 9.853975475852781e-19
    vertex 13.035533905932802 23.78076148385778 9.853975475852781e-19
    vertex 13.035533905932713 16.709693671992234 9.853975475852781e-19
  endloop
endfacet
facet normal 7.904562990735976e-17 -2.4327858893658396e-17 -1.0
  outer loop
    vertex 13.035533905932713 16.709693671992234 9.853975475852781e-19
    vertex 13.035533905932802 23.78076148385778 9.853975475852781e-19
    vertex 13.545084971874726 17.306301316462616 9.853975475852781e-19
  endloop
endfacet
facet normal 7.904562990735976e-17 -2.4327858893658396e-17 -1.0
  outer loop
    vertex 13.545084971874726 17.306301316462616 9.853975475852781e-19
    vertex 13.035533905932802 23.78076148385778 9.853975475852781e-19
    vertex 13.065882728668942 23.745227577925007 9.853975475852781e-19
  endloop
endfacet
facet normal 7.904562990735976e-17 -2.4327858893658396e-17 -1.0
  outer loop
    vertex 13.545084971874726 17.306301316462616 9.853975475852781e-19
    vertex 13.065882728668942 23.745227577925007 9.853975475852781e-19
    vertex 13.545084971874703 23.184153839387335 9.853975475852781e-19
  endloop
endfacet
facet normal 7.904562990735976e-17 -2.4327858893658396e-17 -1.0
  outer loop
    vertex 13.545084971874726 17.306301316462616 9.853975475852781e-19
    vertex 13.545084971874703 23.184153839387335 9.853975475852781e-19
    vertex 13.955032620941875 22.515180076622652 9.853975475852781e-19
  endloop
endfacet
facet normal 7.904562990735976e-17 -2.4327858893658396e-17 -1.0
  outer loop
    vertex 13.545084971874726 17.306301316462616 9.853975475852781e-19
    vertex 13.955032620941875 22.515180076622652 9.853975475852781e-19
    vertex 13.955032620941898 17.975275079227277 9.853975475852781e-19
  endloop
endfacet
facet normal 7.904562990735976e-17 -2.4327858893658396e-17 -1.0
  outer loop
    vertex 13.955032620941898 17.975275079227277 9.853975475852781e-19
    vertex 13.955032620941875 22.515180076622652 9.853975475852781e-19
    vertex 14.255282581475676 21.790312549799655 9.853975475852781e-19
  endloop
endfacet
facet normal 7.904562990735976e-17 -2.4327858893658396e-17 -1.0
  outer loop
    vertex 13.955032620941898 17.975275079227277 9.853975475852781e-19
    vertex 14.255282581475676 21.790312549799655 9.853975475852781e-19
    vertex 14.255282581475766 18.700142606050253 9.853975475852781e-19
  endloop
endfacet
facet normal 7.904562990735976e-17 -2.4327858893658396e-17 -1.0
  outer loop
    vertex 14.255282581475766 18.700142606050253 9.853975475852781e-19
    vertex 14.255282581475676 21.790312549799655 9.853975475852781e-19
    vertex 14.438441702975693 21.027399903126064 9.853975475852781e-19
  endloop
endfacet
facet normal 7.904562990735976e-17 -2.4327858893658396e-17 -1.0
  outer loop
    vertex 14.255282581475766 18.700142606050253 9.853975475852781e-19
    vertex 14.438441702975693 21.027399903126064 9.853975475852781e-19
    vertex 14.438441702975648 19.46305525272373 9.853975475852781e-19
  endloop
endfacet
facet normal 7.904562990735976e-17 -2.4327858893658396e-17 -1.0
  outer loop
    vertex 14.438441702975648 19.46305525272373 9.853975475852781e-19
    vertex 14.438441702975693 21.027399903126064 9.853975475852781e-19
    vertex 14.499999999999968 20.245227577924904 9.853975475852781e-19
  endloop
endfacet
facet normal 7.904562990735976e-17 -2.4327858893658396e-17 -1.0
  outer loop
    vertex 1.9221615232222464 2.938082308343207 -5.287437154777307e-16
    vertex 1.9211226132288792 2.2955287482427407 -5.287437154777307e-16
    vertex 1.8643240968247867 2.6173989134059017 -5.287437154777307e-16
  endloop
endfacet
facet normal 7.904562990735976e-17 -2.4327858893658396e-17 -1.0
  outer loop
    vertex 1.9211226132288792 2.2955287482427407 -5.287437154777307e-16
    vertex 1.9221615232222464 2.938082308343207 -5.287437154777307e-16
    vertex 2.0858756975931634 2.013247158548475 -5.287437154777307e-16
  endloop
endfacet
facet normal 7.904562990735976e-17 -2.4327858893658396e-17 -1.0
  outer loop
    vertex 2.0858756975931634 2.013247158548475 -5.287437154777307e-16
    vertex 1.9221615232222464 2.938082308343207 -5.287437154777307e-16
    vertex 2.0871754487023586 3.21906880637904 -5.287437154777307e-16
  endloop
endfacet
facet normal 7.904562990735976e-17 -2.4327858893658396e-17 -1.0
  outer loop
    vertex 2.0858756975931634 2.013247158548475 -5.287437154777307e-16
    vertex 2.0871754487023586 3.21906880637904 -5.287437154777307e-16
    vertex 2.3381925835506188 1.8054908981166868 -5.287437154777307e-16
  endloop
endfacet
facet normal 7.904562990735976e-17 -2.4327858893658396e-17 -1.0
  outer loop
    vertex 2.3381925835506188 1.8054908981166868 -5.287437154777307e-16
    vertex 2.0871754487023586 3.21906880637904 -5.287437154777307e-16
    vertex 2.3390658415438317 3.4257914168379973 -5.287437154777307e-16
  endloop
endfacet
facet normal 7.904562990735976e-17 -2.4327858893658396e-17 -1.0
  outer loop
    vertex 2.3381925835506188 1.8054908981166868 -5.287437154777307e-16
    vertex 2.3390658415438317 3.4257914168379973 -5.287437154777307e-16
    vertex 2.6468451172134606 1.697973047731856 -5.287437154777307e-16
  endloop
endfacet
facet normal 7.904562990735976e-17 -2.4327858893658396e-17 -1.0
  outer loop
    vertex 2.6468451172134606 1.697973047731856 -5.287437154777307e-16
    vertex 2.3390658415438317 3.4257914168379973 -5.287437154777307e-16
    vertex 2.6468451172134606 3.5328191008691747 -5.287437154777307e-16
  endloop
endfacet
facet normal 7.904562990735976e-17 -2.4327858893658396e-17 -1.0
  outer loop
    vertex 2.6468451172134606 1.697973047731856 -5.287437154777307e-16
    vertex 2.6468451172134606 3.5328191008691747 -5.287437154777307e-16
    vertex 5.304862499149394 4.493128349050296 -5.287437154777307e-16
  endloop
endfacet
facet normal 7.904562990735976e-17 -2.4327858893658396e-17 -1.0
  outer loop
    vertex 2.6468451172134606 1.697973047731856 -5.287437154777307e-16
    vertex 5.304862499149394 4.493128349050296 -5.287437154777307e-16
    vertex 4.603303546000895 0.9726590578689511 2.0121908768056758e-16
  endloop
endfacet
facet normal 7.904562990735976e-17 -2.4327858893658396e-17 -1.0
  outer loop
    vertex 4.603303546000895 0.9726590578689511 2.0121908768056758e-16
    vertex 5.304862499149394 4.493128349050296 -5.287437154777307e-16
    vertex 6.940982603507937 1.916104809277666 -9.706838226059156e-17
  endloop
endfacet
facet normal 7.904562990735976e-17 -2.4327858893658396e-17 -1.0
  outer loop
    vertex 6.940982603507937 1.916104809277666 -9.706838226059156e-17
    vertex 5.304862499149394 4.493128349050296 -5.287437154777307e-16
    vertex 5.895773470997004 4.771410968738605 -5.287437154777307e-16
  endloop
endfacet
facet normal 7.904562990735976e-17 -2.4327858893658396e-17 -1.0
  outer loop
    vertex 6.940982603507937 1.916104809277666 -9.706838226059156e-17
    vertex 5.895773470997004 4.771410968738605 -5.287437154777307e-16
    vertex 6.406888863365535 5.178077968573158 -3.524958103184872e-16
  endloop
endfacet
facet normal 7.904562990735976e-17 -2.4327858893658396e-17 -1.0
  outer loop
    vertex 6.940982603507937 1.916104809277666 -9.706838226059156e-17
    vertex 6.406888863365535 5.178077968573158 -3.524958103184872e-16
    vertex 6.810833003470916 5.691347999594843 -1.762479051592436e-16
  endloop
endfacet
facet normal 7.904562990735976e-17 -2.4327858893658396e-17 -1.0
  outer loop
    vertex 6.940982603507937 1.916104809277666 -9.706838226059156e-17
    vertex 6.810833003470916 5.691347999594843 -1.762479051592436e-16
    vertex 8.447192678063006 8.348825078254494 1.0574874309554614e-15
  endloop
endfacet
facet normal 7.904562990735976e-17 -2.4327858893658396e-17 -1.0
  outer loop
    vertex 6.940982603507937 1.916104809277666 -9.706838226059156e-17
    vertex 8.447192678063006 8.348825078254494 1.0574874309554614e-15
    vertex 10.980603577495245 8.749931268382763 2.2048395369553647e-15
  endloop
endfacet
facet normal 7.904562990735976e-17 -2.4327858893658396e-17 -1.0
  outer loop
    vertex 10.980603577495245 8.749931268382763 2.2048395369553647e-15
    vertex 8.447192678063006 8.348825078254494 1.0574874309554614e-15
    vertex 8.565476666471968 8.824206330865785 2.145459200494852e-15
  endloop
endfacet
facet normal 7.904562990735976e-17 -2.4327858893658396e-17 -1.0
  outer loop
    vertex 10.980603577495245 8.749931268382763 2.2048395369553647e-15
    vertex 8.565476666471968 8.824206330865785 2.145459200494852e-15
    vertex 8.865089067086998 9.401525332086395 2.3166846632799116e-15
  endloop
endfacet
facet normal 7.904562990735976e-17 -2.4327858893658396e-17 -1.0
  outer loop
    vertex 10.980603577495245 8.749931268382763 2.2048395369553647e-15
    vertex 8.865089067086998 9.401525332086395 2.3166846632799116e-15
    vertex 9.078656456045481 10.01589801226197 2.4052881330369193e-15
  endloop
endfacet
facet normal 7.904562990735976e-17 -2.4327858893658396e-17 -1.0
  outer loop
    vertex 10.980603577495245 8.749931268382763 2.2048395369553647e-15
    vertex 9.078656456045481 10.01589801226197 2.4052881330369193e-15
    vertex 9.201748256977153 10.654578862386709 2.4094314806332276e-15
  endloop
endfacet
facet normal 7.904562990735976e-17 -2.4327858893658396e-17 -1.0
  outer loop
    vertex 10.980603577495245 8.749931268382763 2.2048395369553647e-15
    vertex 9.201748256977153 10.654578862386709 2.4094314806332276e-15
    vertex 9.231810860797607 11.304318086709973 2.329028749977676e-15
  endloop
endfacet
facet normal 7.904562990735976e-17 -2.4327858893658396e-17 -1.0
  outer loop
    vertex 10.980603577495245 8.749931268382763 2.2048395369553647e-15
    vertex 9.231810860797607 11.304318086709973 2.329028749977676e-15
    vertex 9.499999999999943 25.245227577924886 9.853975475852781e-19
  endloop
endfacet
facet normal 7.904562990735976e-17 -2.4327858893658396e-17 -1.0
  outer loop
    vertex 10.980603577495245 8.749931268382763 2.2048395369553647e-15
    vertex 9.499999999999943 25.245227577924886 9.853975475852781e-19
    vertex 10.282172325201126 25.183669280900688 9.853975475852781e-19
  endloop
endfacet
facet normal 7.904562990735976e-17 -2.4327858893658396e-17 -1.0
  outer loop
    vertex 10.980603577495245 8.749931268382763 2.2048395369553647e-15
    vertex 10.282172325201126 25.183669280900688 9.853975475852781e-19
    vertex 10.499999999999993 25.13137348304162 9.853975475852781e-19
  endloop
endfacet
facet normal 7.904562990735976e-17 -2.4327858893658396e-17 -1.0
  outer loop
    vertex 10.980603577495245 8.749931268382763 2.2048395369553647e-15
    vertex 10.499999999999993 25.13137348304162 9.853975475852781e-19
    vertex 11.045084971874752 25.00051015940072 9.853975475852781e-19
  endloop
endfacet
facet normal 7.904562990735976e-17 -2.4327858893658396e-17 -1.0
  outer loop
    vertex 10.980603577495245 8.749931268382763 2.2048395369553647e-15
    vertex 11.045084971874752 25.00051015940072 9.853975475852781e-19
    vertex 11.350726188842513 9.449236520782163 2.306470088554571e-15
  endloop
endfacet
facet normal 7.904562990735976e-17 -2.4327858893658396e-17 -1.0
  outer loop
    vertex 11.350726188842513 9.449236520782163 2.306470088554571e-15
    vertex 11.045084971874752 25.00051015940072 9.853975475852781e-19
    vertex 11.264138133492684 14.934909574451979 3.49431728320307e-16
  endloop
endfacet
facet normal 7.904562990735976e-17 -2.4327858893658396e-17 -1.0
  outer loop
    vertex 11.350726188842513 9.449236520782163 2.306470088554571e-15
    vertex 11.264138133492684 14.934909574451979 3.49431728320307e-16
    vertex 11.309062068926565 14.67750703066175 5.128744867171533e-16
  endloop
endfacet
facet normal 7.904562990735976e-17 -2.4327858893658396e-17 -1.0
  outer loop
    vertex 11.350726188842513 9.449236520782163 2.306470088554571e-15
    vertex 11.309062068926565 14.67750703066175 5.128744867171533e-16
    vertex 11.750062790596331 13.32024636969644 1.3699880264975577e-15
  endloop
endfacet
facet normal 7.904562990735976e-17 -2.4327858893658396e-17 -1.0
  outer loop
    vertex 11.350726188842513 9.449236520782163 2.306470088554571e-15
    vertex 11.750062790596331 13.32024636969644 1.3699880264975577e-15
    vertex 11.628555831222634 10.19006664522288 2.310285289549801e-15
  endloop
endfacet
facet normal 7.904562990735976e-17 -2.4327858893658396e-17 -1.0
  outer loop
    vertex 11.628555831222634 10.19006664522288 2.310285289549801e-15
    vertex 11.750062790596331 13.32024636969644 1.3699880264975577e-15
    vertex 11.809546926278776 10.960300899832665 2.2162227193335086e-15
  endloop
endfacet
facet normal 7.904562990735976e-17 -2.4327858893658396e-17 -1.0
  outer loop
    vertex 11.809546926278776 10.960300899832665 2.2162227193335086e-15
    vertex 11.750062790596331 13.32024636969644 1.3699880264975577e-15
    vertex 11.870801499840006 12.538299601972392 1.7421963082872474e-15
  endloop
endfacet
facet normal 7.904562990735976e-17 -2.4327858893658396e-17 -1.0
  outer loop
    vertex 11.809546926278776 10.960300899832665 2.2162227193335086e-15
    vertex 11.870801499840006 12.538299601972392 1.7421963082872474e-15
    vertex 11.89073827376816 11.747337460963578 2.0258213381825777e-15
  endloop
endfacet
facet normal 7.904562990735976e-17 -2.4327858893658396e-17 -1.0
  outer loop
    vertex 9.012296695824412 12.583105047588015 1.9229764071852076e-15
    vertex 8.577358507572884 16.351622467877828 5.48792750053593e-16
    vertex 8.5773585075729 20.763460898259446 2.1029750827777432e-16
  endloop
endfacet
facet normal -0.34760924593422243 -0.9376394894313279 6.509795741686083e-17
  outer loop
    vertex 4.603303546000895 0.9726590578689512 1.9949951853400236
    vertex 2.6468451172134606 1.697973047731856 -5.287437154777307e-16
    vertex 4.603303546000895 0.9726590578689511 2.0121908768056758e-16
  endloop
endfacet
facet normal -0.2778149215751779 0.026703488376050247 0.960263397750184
  outer loop
    vertex 4.77063141493814 1.0383330028237878 2.2901536733864574
    vertex 5.304862499149394 4.493128349050296 2.3499999999999983
    vertex 2.446845117213461 3.5328191008691747 1.5499999999999985
  endloop
endfacet
facet normal -0.2778149215751779 0.026703488376050247 0.960263397750184
  outer loop
    vertex 5.304862499149394 4.493128349050296 2.3499999999999983
    vertex 4.77063141493814 1.0383330028237878 2.2901536733864574
    vertex 4.978633675626704 1.1242971564772228 2.3499999999999983
  endloop
endfacet
facet normal -0.3039189711310521 6.605877499323256e-05 0.9526978821341427
  outer loop
    vertex 4.601728891611231 0.9680429861151376 2.2377918088900297
    vertex 2.446845117213461 3.5328191008691747 1.5499999999999985
    vertex 2.446845117213461 1.6979730477318566 1.5499999999999985
  endloop
endfacet
facet normal -0.3039189711310521 6.605877499323256e-05 0.9526978821341427
  outer loop
    vertex 2.446845117213461 3.5328191008691747 1.5499999999999985
    vertex 4.601728891611231 0.9680429861151376 2.2377918088900297
    vertex 4.77063141493814 1.0383330028237878 2.2901536733864574
  endloop
endfacet
facet normal 0.3745875488746998 -0.9271680043849211 0.006607561798978894
  outer loop
    vertex 4.978633675626704 1.1242971564772228 2.3499999999999983
    vertex 6.9410139909743815 1.9160864452162674 2.2044792191486353
    vertex 6.9399714570017395 1.9167023177489475 2.3499999999999983
  endloop
endfacet
facet normal 0.37417353914055757 -0.9273587021410089 -1.3052711633072928e-05
  outer loop
    vertex 4.978633675626704 1.1242971564772228 2.3499999999999983
    vertex 6.940982603507937 1.916104809277666 -9.706838226059156e-17
    vertex 6.9410139909743815 1.9160864452162674 2.2044792191486353
  endloop
endfacet
facet normal 0.3745875488746998 -0.9271680043849211 0.006607561798978894
  outer loop
    vertex 4.978633675626704 1.1242971564772228 2.3499999999999983
    vertex 6.9410139909743815 1.9160864452162674 2.2044792191486353
    vertex 6.9399714570017395 1.9167023177489475 2.3499999999999983
  endloop
endfacet
facet normal -0.3036929722479478 7.980162330827448e-05 0.9527699471745046
  outer loop
    vertex 4.601728891611231 0.9680429861151376 2.2377918088900297
    vertex 2.446845117213461 3.5328191008691747 1.5499999999999985
    vertex 2.446845117213461 1.6979730477318566 1.5499999999999985
  endloop
endfacet
facet normal -0.3036929722479478 7.980162330827448e-05 0.9527699471745046
  outer loop
    vertex 2.446845117213461 3.5328191008691747 1.5499999999999985
    vertex 4.601728891611231 0.9680429861151376 2.2377918088900297
    vertex 4.77063141493814 1.0383330028237878 2.2901536733864574
  endloop
endfacet
facet normal 0.3742526224386774 -0.9273267873490842 6.3738523159305e-05
  outer loop
    vertex 4.978633675626704 1.1242971564772228 2.3499999999999983
    vertex 4.603303546000895 0.9726590578689511 2.0121908768056758e-16
    vertex 6.940982603507937 1.916104809277666 -9.706838226059156e-17
  endloop
endfacet
facet normal 0.38813212496401817 -0.92148162843233 -0.015002067611415197
  outer loop
    vertex 4.77063141493814 1.0383330028237878 2.2901536733864574
    vertex 4.601728891611231 0.9680429861151376 2.2377918088900297
    vertex 4.603303546000895 0.9726590578689512 1.9949951853400236
  endloop
endfacet
facet normal 0.375367507588089 -0.9268759802034899 -0.00038931854007340997
  outer loop
    vertex 4.978633675626704 1.1242971564772228 2.3499999999999983
    vertex 4.603303546000895 0.9726590578689512 1.9949951853400236
    vertex 4.603303546000895 0.9726590578689511 2.0121908768056758e-16
  endloop
endfacet
facet normal 0.375367507588089 -0.9268759802034899 -0.00038931854007340997
  outer loop
    vertex 4.603303546000895 0.9726590578689512 1.9949951853400236
    vertex 4.978633675626704 1.1242971564772228 2.3499999999999983
    vertex 4.77063141493814 1.0383330028237878 2.2901536733864574
  endloop
endfacet
facet normal 0.38813212496401817 -0.92148162843233 -0.015002067611415197
  outer loop
    vertex 4.77063141493814 1.0383330028237878 2.2901536733864574
    vertex 4.601728891611231 0.9680429861151376 2.2377918088900297
    vertex 4.603303546000895 0.9726590578689512 1.9949951853400236
  endloop
endfacet
facet normal -0.0 -0.0 1.0
  outer loop
    vertex 1.5624058509742864 24.120212547379378 3.2999999999999994
    vertex 1.5613118709959437 24.742221451926103 3.2999999999999994
    vertex 1.4999999999999998 24.429678847276467 3.2999999999999994
  endloop
endfacet
facet normal -0.0 -0.0 1.0
  outer loop
    vertex 1.5613118709959437 24.742221451926103 3.2999999999999994
    vertex 1.5624058509742864 24.120212547379378 3.2999999999999994
    vertex 1.7380278428650386 25.007199735059952 3.2999999999999994
  endloop
endfacet
facet normal -0.0 -0.0 1.0
  outer loop
    vertex 1.7380278428650386 25.007199735059952 3.2999999999999994
    vertex 1.5624058509742864 24.120212547379378 3.2999999999999994
    vertex 1.7380278428650104 23.857875365546228 3.2999999999999994
  endloop
endfacet
facet normal -0.0 -0.0 1.0
  outer loop
    vertex 1.7380278428650386 25.007199735059952 3.2999999999999994
    vertex 1.7380278428650104 23.857875365546228 3.2999999999999994
    vertex 2.000365024698148 23.682253373655488 3.2999999999999994
  endloop
endfacet
facet normal -0.0 -0.0 1.0
  outer loop
    vertex 1.7380278428650386 25.007199735059952 3.2999999999999994
    vertex 2.000365024698148 23.682253373655488 3.2999999999999994
    vertex 2.0030061259988994 25.183915706929035 3.2999999999999994
  endloop
endfacet
facet normal -0.0 -0.0 1.0
  outer loop
    vertex 2.0030061259988994 25.183915706929035 3.2999999999999994
    vertex 2.000365024698148 23.682253373655488 3.2999999999999994
    vertex 2.1904735543971734 23.643916777466224 3.2999999999999994
  endloop
endfacet
facet normal -0.0 -0.0 1.0
  outer loop
    vertex 2.0030061259988994 25.183915706929035 3.2999999999999994
    vertex 2.1904735543971734 23.643916777466224 3.2999999999999994
    vertex 2.3155487306485374 25.245227577924965 3.2999999999999994
  endloop
endfacet
facet normal -0.0 -0.0 1.0
  outer loop
    vertex 2.3155487306485374 25.245227577924965 3.2999999999999994
    vertex 2.1904735543971734 23.643916777466224 3.2999999999999994
    vertex 6.227201148634847 22.904895129185203 3.2999999999999994
  endloop
endfacet
facet normal -0.0 -0.0 1.0
  outer loop
    vertex 2.3155487306485374 25.245227577924965 3.2999999999999994
    vertex 6.227201148634847 22.904895129185203 3.2999999999999994
    vertex 6.227201148634839 25.24522757792492 3.2999999999999994
  endloop
endfacet
facet normal -0.9659280556816396 -0.25881072475283423 -2.2261072135114037e-19
  outer loop
    vertex 8.398590927211668 21.4306535792511 3.2999999999999994
    vertex 8.5773585075729 20.763460898259446 2.1029750827777432e-16
    vertex 8.5773585075729 20.763460898259446 3.2999999999999994
  endloop
endfacet
facet normal -0.9659280556816396 -0.25881072475283423 -2.2261072135114037e-19
  outer loop
    vertex 8.5773585075729 20.763460898259446 2.1029750827777432e-16
    vertex 8.398590927211668 21.4306535792511 3.2999999999999994
    vertex 8.398590927211668 21.4306535792511 1.6661774094331149e-16
  endloop
endfacet
facet normal -0.168115937215987 -0.9857672299554244 0.0
  outer loop
    vertex 6.908097284862653 22.78877289605532 7.574545939817639e-17
    vertex 6.227201148634847 22.904895129185203 3.2999999999999994
    vertex 6.227201148634847 22.904895129185203 6.701332703147703e-17
  endloop
endfacet
facet normal -0.168115937215987 -0.9857672299554244 0.0
  outer loop
    vertex 6.227201148634847 22.904895129185203 3.2999999999999994
    vertex 6.908097284862653 22.78877289605532 7.574545939817639e-17
    vertex 6.908097284862653 22.78877289605532 3.2999999999999994
  endloop
endfacet
facet normal -0.8541861814022524 -0.5199672754139809 0.0
  outer loop
    vertex 8.039435440971486 22.020663119903283 3.2999999999999994
    vertex 8.398590927211668 21.4306535792511 1.6661774094331149e-16
    vertex 8.398590927211668 21.4306535792511 3.2999999999999994
  endloop
endfacet
facet normal -0.8541861814022524 -0.5199672754139809 0.0
  outer loop
    vertex 8.398590927211668 21.4306535792511 1.6661774094331149e-16
    vertex 8.039435440971486 22.020663119903283 3.2999999999999994
    vertex 8.039435440971486 22.020663119903283 1.2764138111941277e-16
  endloop
endfacet
facet normal -0.1924203331104413 0.9808794140678397 0.029154595925824454
  outer loop
    vertex 2.0030061259988994 25.183915706929035 3.2999999999999994
    vertex 1.815548730648537 25.245227577924965 9.853975475852781e-19
    vertex 1.5030061259988996 25.183915706929035 2.5618629414159904e-19
  endloop
endfacet
facet normal -0.1924203331104413 0.9808794140678397 0.029154595925824454
  outer loop
    vertex 1.815548730648537 25.245227577924965 9.853975475852781e-19
    vertex 2.0030061259988994 25.183915706929035 3.2999999999999994
    vertex 2.3155487306485374 25.245227577924965 3.2999999999999994
  endloop
endfacet
facet normal 1.0617354968598153e-14 1.0 -5.772273541655472e-16
  outer loop
    vertex 2.3155487306485374 25.245227577924965 3.2999999999999994
    vertex 9.499999999999943 25.245227577924886 9.853975475852781e-19
    vertex 1.815548730648537 25.245227577924965 9.853975475852781e-19
  endloop
endfacet
facet normal 1.0617354968598153e-14 1.0 -5.772273541655472e-16
  outer loop
    vertex 9.499999999999943 25.245227577924886 9.853975475852781e-19
    vertex 2.3155487306485374 25.245227577924965 3.2999999999999994
    vertex 9.499999999999943 25.245227577924886 3.2999999999999994
  endloop
endfacet
facet normal 1.0617354968598153e-14 1.0 -5.772273541655472e-16
  outer loop
    vertex 9.499999999999943 25.245227577924886 3.2999999999999994
    vertex 2.3155487306485374 25.245227577924965 3.2999999999999994
    vertex 6.227201148634839 25.24522757792492 3.2999999999999994
  endloop
endfacet
facet normal -0.5543355583735238 -0.8280445211217151 0.08399023611720022
  outer loop
    vertex 1.500365024698148 23.68225337365549 4.607179246350437e-18
    vertex 1.7380278428650104 23.857875365546228 3.2999999999999994
    vertex 1.2380278428650102 23.857875365546228 3.3359782536067168e-18
  endloop
endfacet
facet normal -0.5543355583735238 -0.8280445211217151 0.08399023611720022
  outer loop
    vertex 1.7380278428650104 23.857875365546228 3.2999999999999994
    vertex 1.500365024698148 23.68225337365549 4.607179246350437e-18
    vertex 2.000365024698148 23.682253373655488 3.2999999999999994
  endloop
endfacet
facet normal -0.9706267936317285 0.1904090638236911 0.14706466570177706
  outer loop
    vertex 1.5613118709959437 24.742221451926103 3.2999999999999994
    vertex 0.9999999999999996 24.429678847276467 9.853975475851216e-19
    vertex 1.4999999999999998 24.429678847276467 3.2999999999999994
  endloop
endfacet
facet normal -0.9706267936317285 0.1904090638236911 0.14706466570177706
  outer loop
    vertex 0.9999999999999996 24.429678847276467 9.853975475851216e-19
    vertex 1.5613118709959437 24.742221451926103 3.2999999999999994
    vertex 1.061311870995944 24.742221451926103 2.5618629414159904e-19
  endloop
endfacet
facet normal -0.5528885903637683 0.8290335496523543 0.08377099853996489
  outer loop
    vertex 1.7380278428650386 25.007199735059952 3.2999999999999994
    vertex 1.5030061259988996 25.183915706929035 2.5618629414159904e-19
    vertex 1.2380278428650384 25.007199735059952 0.0
  endloop
endfacet
facet normal -0.5528885903637683 0.8290335496523543 0.08377099853996489
  outer loop
    vertex 1.5030061259988996 25.183915706929035 2.5618629414159904e-19
    vertex 1.7380278428650386 25.007199735059952 3.2999999999999994
    vertex 2.0030061259988994 25.183915706929035 3.2999999999999994
  endloop
endfacet
facet normal 0.0 0.0 1.0
  outer loop
    vertex 13.955032620941875 22.515180076622652 3.2999999999999994
    vertex 8.5773585075729 20.763460898259446 3.2999999999999994
    vertex 8.577358507572884 19.660501290664037 3.2999999999999994
  endloop
endfacet
facet normal 0.0 0.0 1.0
  outer loop
    vertex 8.5773585075729 20.763460898259446 3.2999999999999994
    vertex 13.955032620941875 22.515180076622652 3.2999999999999994
    vertex 9.499999999999943 25.245227577924886 3.2999999999999994
  endloop
endfacet
facet normal 0.0 0.0 1.0
  outer loop
    vertex 9.499999999999943 25.245227577924886 3.2999999999999994
    vertex 13.955032620941875 22.515180076622652 3.2999999999999994
    vertex 10.282172325201126 25.183669280900688 3.2999999999999994
  endloop
endfacet
facet normal 0.0 0.0 1.0
  outer loop
    vertex 10.282172325201126 25.183669280900688 3.2999999999999994
    vertex 13.955032620941875 22.515180076622652 3.2999999999999994
    vertex 10.499999999999993 25.13137348304162 3.2999999999999994
  endloop
endfacet
facet normal 0.0 0.0 1.0
  outer loop
    vertex 10.499999999999993 25.13137348304162 3.2999999999999994
    vertex 13.955032620941875 22.515180076622652 3.2999999999999994
    vertex 11.045084971874752 25.00051015940072 3.2999999999999994
  endloop
endfacet
facet normal 0.0 0.0 1.0
  outer loop
    vertex 11.045084971874752 25.00051015940072 3.2999999999999994
    vertex 13.955032620941875 22.515180076622652 3.2999999999999994
    vertex 11.769952498697684 24.700260198866815 3.2999999999999994
  endloop
endfacet
facet normal 0.0 0.0 1.0
  outer loop
    vertex 11.769952498697684 24.700260198866815 3.2999999999999994
    vertex 13.955032620941875 22.515180076622652 3.2999999999999994
    vertex 12.438926261462248 24.290312549799634 3.2999999999999994
  endloop
endfacet
facet normal 0.0 0.0 1.0
  outer loop
    vertex 12.438926261462248 24.290312549799634 3.2999999999999994
    vertex 13.955032620941875 22.515180076622652 3.2999999999999994
    vertex 13.035533905932802 23.78076148385778 3.2999999999999994
  endloop
endfacet
facet normal 0.0 0.0 1.0
  outer loop
    vertex 13.035533905932802 23.78076148385778 3.2999999999999994
    vertex 13.955032620941875 22.515180076622652 3.2999999999999994
    vertex 13.065882728668942 23.745227577925007 3.2999999999999994
  endloop
endfacet
facet normal 0.0 0.0 1.0
  outer loop
    vertex 13.065882728668942 23.745227577925007 3.2999999999999994
    vertex 13.955032620941875 22.515180076622652 3.2999999999999994
    vertex 13.545084971874703 23.184153839387335 3.2999999999999994
  endloop
endfacet
facet normal 0.0 0.0 1.0
  outer loop
    vertex 6.227201148634847 22.904895129185203 3.2999999999999994
    vertex 9.499999999999943 25.245227577924886 3.2999999999999994
    vertex 6.227201148634839 25.24522757792492 3.2999999999999994
  endloop
endfacet
facet normal 0.0 0.0 1.0
  outer loop
    vertex 9.499999999999943 25.245227577924886 3.2999999999999994
    vertex 6.227201148634847 22.904895129185203 3.2999999999999994
    vertex 6.908097284862653 22.78877289605532 3.2999999999999994
  endloop
endfacet
facet normal 0.0 0.0 1.0
  outer loop
    vertex 9.499999999999943 25.245227577924886 3.2999999999999994
    vertex 6.908097284862653 22.78877289605532 3.2999999999999994
    vertex 7.076253694519754 22.706725403292666 3.2999999999999994
  endloop
endfacet
facet normal 0.0 0.0 1.0
  outer loop
    vertex 9.499999999999943 25.245227577924886 3.2999999999999994
    vertex 7.076253694519754 22.706725403292666 3.2999999999999994
    vertex 7.528871942441122 22.485882246042205 3.2999999999999994
  endloop
endfacet
facet normal 0.0 0.0 1.0
  outer loop
    vertex 9.499999999999943 25.245227577924886 3.2999999999999994
    vertex 7.528871942441122 22.485882246042205 3.2999999999999994
    vertex 8.039435440971486 22.020663119903283 3.2999999999999994
  endloop
endfacet
facet normal 0.0 0.0 1.0
  outer loop
    vertex 9.499999999999943 25.245227577924886 3.2999999999999994
    vertex 8.039435440971486 22.020663119903283 3.2999999999999994
    vertex 8.398590927211668 21.4306535792511 3.2999999999999994
  endloop
endfacet
facet normal 0.0 0.0 1.0
  outer loop
    vertex 9.499999999999943 25.245227577924886 3.2999999999999994
    vertex 8.398590927211668 21.4306535792511 3.2999999999999994
    vertex 8.5773585075729 20.763460898259446 3.2999999999999994
  endloop
endfacet
facet normal -0.82447151105205 -0.5519436018040668 0.12491992591697752
  outer loop
    vertex 1.5624058509742864 24.120212547379378 3.2999999999999994
    vertex 1.2380278428650102 23.857875365546228 3.3359782536067168e-18
    vertex 1.7380278428650104 23.857875365546228 3.2999999999999994
  endloop
endfacet
facet normal -0.82447151105205 -0.5519436018040668 0.12491992591697752
  outer loop
    vertex 1.2380278428650102 23.857875365546228 3.3359782536067168e-18
    vertex 1.5624058509742864 24.120212547379378 3.2999999999999994
    vertex 1.0624058509742866 24.120212547379374 2.0647772608629963e-18
  endloop
endfacet
facet normal -1.0 2.894878626156531e-15 -1.335730473656149e-15
  outer loop
    vertex 8.577358507572884 19.15761472235022 4.2
    vertex 8.577358507572884 16.351622467877828 5.48792750053593e-16
    vertex 8.577358507572884 16.351622467877828 4.200000000000001
  endloop
endfacet
facet normal -1.0 2.894878626156531e-15 -1.335730473656149e-15
  outer loop
    vertex 8.577358507572884 16.351622467877828 5.48792750053593e-16
    vertex 8.577358507572884 19.15761472235022 4.2
    vertex 8.5773585075729 20.763460898259446 2.1029750827777432e-16
  endloop
endfacet
facet normal -1.0 2.894878626156531e-15 -1.335730473656149e-15
  outer loop
    vertex 8.5773585075729 20.763460898259446 2.1029750827777432e-16
    vertex 8.577358507572884 19.15761472235022 4.2
    vertex 8.577358507572884 19.660501290664037 3.2999999999999994
  endloop
endfacet
facet normal -1.0 2.894878626156531e-15 -1.335730473656149e-15
  outer loop
    vertex 8.5773585075729 20.763460898259446 2.1029750827777432e-16
    vertex 8.577358507572884 19.660501290664037 3.2999999999999994
    vertex 8.5773585075729 20.763460898259446 3.2999999999999994
  endloop
endfacet
facet normal -0.9696306095740365 -0.1955321899066441 0.14691372872333894
  outer loop
    vertex 1.5624058509742864 24.120212547379378 3.2999999999999994
    vertex 0.9999999999999996 24.429678847276467 9.853975475851216e-19
    vertex 1.0624058509742866 24.120212547379374 2.0647772608629963e-18
  endloop
endfacet
facet normal -0.9696306095740365 -0.1955321899066441 0.14691372872333894
  outer loop
    vertex 0.9999999999999996 24.429678847276467 9.853975475851216e-19
    vertex 1.5624058509742864 24.120212547379378 3.2999999999999994
    vertex 1.4999999999999998 24.429678847276467 3.2999999999999994
  endloop
endfacet
facet normal -0.19758851798912008 -0.9798277983489869 0.029937654240775352
  outer loop
    vertex 1.6904735543971734 23.643916777466224 7.108001951623413e-18
    vertex 2.000365024698148 23.682253373655488 3.2999999999999994
    vertex 1.500365024698148 23.68225337365549 4.607179246350437e-18
  endloop
endfacet
facet normal -0.19758851798912008 -0.9798277983489869 0.029937654240775352
  outer loop
    vertex 2.000365024698148 23.682253373655488 3.2999999999999994
    vertex 1.6904735543971734 23.643916777466224 7.108001951623413e-18
    vertex 2.1904735543971734 23.643916777466224 3.2999999999999994
  endloop
endfacet
facet normal -0.6735208865142054 -0.7391681915701723 0.0
  outer loop
    vertex 8.039435440971486 22.020663119903283 1.2764138111941277e-16
    vertex 7.528871942441122 22.485882246042205 3.2999999999999994
    vertex 7.528871942441122 22.485882246042205 9.651339193054226e-17
  endloop
endfacet
facet normal -0.6735208865142054 -0.7391681915701723 0.0
  outer loop
    vertex 7.528871942441122 22.485882246042205 3.2999999999999994
    vertex 8.039435440971486 22.020663119903283 1.2764138111941277e-16
    vertex 8.039435440971486 22.020663119903283 3.2999999999999994
  endloop
endfacet
facet normal -0.8254258296447817 0.5504825752752328 0.12506451964314874
  outer loop
    vertex 1.7380278428650386 25.007199735059952 3.2999999999999994
    vertex 1.061311870995944 24.742221451926103 2.5618629414159904e-19
    vertex 1.5613118709959437 24.742221451926103 3.2999999999999994
  endloop
endfacet
facet normal -0.8254258296447817 0.5504825752752328 0.12506451964314874
  outer loop
    vertex 1.061311870995944 24.742221451926103 2.5618629414159904e-19
    vertex 1.7380278428650386 25.007199735059952 3.2999999999999994
    vertex 1.2380278428650384 25.007199735059952 0.0
  endloop
endfacet
facet normal -0.43850987126607965 -0.8987263725974701 0.0
  outer loop
    vertex 7.528871942441122 22.485882246042205 9.651339193054226e-17
    vertex 7.076253694519754 22.706725403292666 3.2999999999999994
    vertex 7.076253694519754 22.706725403292666 3.376657063533903e-17
  endloop
endfacet
facet normal -0.43850987126607965 -0.8987263725974701 0.0
  outer loop
    vertex 7.076253694519754 22.706725403292666 3.2999999999999994
    vertex 7.528871942441122 22.485882246042205 9.651339193054226e-17
    vertex 7.528871942441122 22.485882246042205 3.2999999999999994
  endloop
endfacet
facet normal -0.43850987126606533 -0.8987263725974769 0.0
  outer loop
    vertex 7.076253694519754 22.706725403292666 3.2999999999999994
    vertex 6.908097284862653 22.78877289605532 7.574545939817639e-17
    vertex 7.076253694519754 22.706725403292666 3.376657063533903e-17
  endloop
endfacet
facet normal -0.43850987126606533 -0.8987263725974769 0.0
  outer loop
    vertex 6.908097284862653 22.78877289605532 7.574545939817639e-17
    vertex 7.076253694519754 22.706725403292666 3.2999999999999994
    vertex 6.908097284862653 22.78877289605532 3.2999999999999994
  endloop
endfacet
endsolid Knacle_Open_714
